<svg width="209" height="40" viewBox="0 0 209 40" fill="none" xmlns="http://www.w3.org/2000/svg">
<path d="M40 16.3526V32.9069C40 36.8014 36.8397 39.9584 32.9412 39.9584H7.05882C3.16034 39.9584 0 36.8014 0 32.9069V7.05149C0 3.15706 3.16034 0 7.05882 0H32.9412C36.155 0 38.8671 2.14548 39.7207 5.08086L22.9412 21.8429L16.7142 15.6224C16.2548 15.1635 15.5099 15.1635 15.0505 15.6224L10.9328 19.7358C10.4734 20.1948 10.4734 20.9389 10.9328 21.3979L22.1093 32.5627C22.5687 33.0217 23.3136 33.0217 23.7731 32.5627L40 16.3526Z" fill="#2D4EFB"/>
<path d="M60.344 14.408V19.376H66.248C66.584 19.376 66.856 19.48 67.064 19.688C67.288 19.896 67.4 20.168 67.4 20.504C67.4 20.792 67.288 21.04 67.064 21.248C66.856 21.456 66.584 21.56 66.248 21.56H60.344V27.848C60.344 28.168 60.224 28.44 59.984 28.664C59.76 28.888 59.488 29 59.168 29C58.832 29 58.552 28.888 58.328 28.664C58.104 28.44 57.992 28.168 57.992 27.848V13.352C57.992 13.032 58.104 12.76 58.328 12.536C58.552 12.312 58.824 12.2 59.144 12.2H67.328C67.664 12.2 67.936 12.304 68.144 12.512C68.368 12.72 68.48 12.992 68.48 13.328C68.48 13.616 68.368 13.872 68.144 14.096C67.92 14.304 67.648 14.408 67.328 14.408H60.344ZM78.0239 16.136C78.4399 16.136 78.7999 16.248 79.1039 16.472C79.4079 16.68 79.5599 16.944 79.5599 17.264C79.5599 17.648 79.4559 17.944 79.2479 18.152C79.0559 18.344 78.8159 18.44 78.5279 18.44C78.3839 18.44 78.1679 18.392 77.8799 18.296C77.5439 18.184 77.2799 18.128 77.0879 18.128C76.5919 18.128 76.1039 18.304 75.6239 18.656C75.1599 18.992 74.7759 19.464 74.4719 20.072C74.1839 20.664 74.0399 21.328 74.0399 22.064V27.848C74.0399 28.168 73.9279 28.44 73.7039 28.664C73.4959 28.888 73.2239 29 72.8879 29C72.5519 29 72.2799 28.896 72.0719 28.688C71.8639 28.464 71.7599 28.184 71.7599 27.848V17.576C71.7599 17.256 71.8639 16.984 72.0719 16.76C72.2959 16.536 72.5679 16.424 72.8879 16.424C73.2239 16.424 73.4959 16.536 73.7039 16.76C73.9279 16.984 74.0399 17.256 74.0399 17.576V18.8C74.3919 18.016 74.9199 17.384 75.6239 16.904C76.3279 16.408 77.1279 16.152 78.0239 16.136ZM93.7589 22.712C93.7589 23.96 93.4789 25.08 92.9189 26.072C92.3589 27.064 91.5909 27.84 90.6149 28.4C89.6549 28.96 88.5909 29.24 87.4229 29.24C86.2549 29.24 85.1829 28.96 84.2069 28.4C83.2469 27.84 82.4869 27.064 81.9269 26.072C81.3669 25.08 81.0869 23.96 81.0869 22.712C81.0869 21.464 81.3669 20.336 81.9269 19.328C82.4869 18.32 83.2469 17.536 84.2069 16.976C85.1829 16.416 86.2549 16.136 87.4229 16.136C88.5909 16.136 89.6549 16.416 90.6149 16.976C91.5909 17.536 92.3589 18.32 92.9189 19.328C93.4789 20.336 93.7589 21.464 93.7589 22.712ZM91.4789 22.712C91.4789 21.848 91.2949 21.08 90.9269 20.408C90.5749 19.72 90.0869 19.192 89.4629 18.824C88.8549 18.44 88.1749 18.248 87.4229 18.248C86.6709 18.248 85.9829 18.44 85.3589 18.824C84.7509 19.192 84.2629 19.72 83.8949 20.408C83.5429 21.08 83.3669 21.848 83.3669 22.712C83.3669 23.56 83.5429 24.32 83.8949 24.992C84.2629 25.664 84.7509 26.192 85.3589 26.576C85.9829 26.944 86.6709 27.128 87.4229 27.128C88.1749 27.128 88.8549 26.944 89.4629 26.576C90.0869 26.192 90.5749 25.664 90.9269 24.992C91.2949 24.32 91.4789 23.56 91.4789 22.712ZM103.538 16.136C106.418 16.136 107.858 17.864 107.858 21.32V27.848C107.858 28.168 107.746 28.44 107.522 28.664C107.314 28.888 107.042 29 106.706 29C106.386 29 106.114 28.888 105.89 28.664C105.682 28.44 105.578 28.168 105.578 27.848V21.344C105.578 20.4 105.362 19.648 104.93 19.088C104.498 18.528 103.794 18.248 102.818 18.248C102.178 18.248 101.594 18.392 101.066 18.68C100.554 18.952 100.146 19.328 99.8416 19.808C99.5536 20.272 99.4096 20.784 99.4096 21.344V27.848C99.4096 28.168 99.2976 28.44 99.0736 28.664C98.8656 28.888 98.5936 29 98.2576 29C97.9216 29 97.6496 28.896 97.4416 28.688C97.2336 28.464 97.1296 28.184 97.1296 27.848V17.576C97.1296 17.256 97.2336 16.984 97.4416 16.76C97.6656 16.536 97.9376 16.424 98.2576 16.424C98.5936 16.424 98.8656 16.536 99.0736 16.76C99.2976 16.984 99.4096 17.256 99.4096 17.576V18.416C99.8256 17.776 100.402 17.24 101.138 16.808C101.89 16.36 102.69 16.136 103.538 16.136ZM115.39 18.656V25.808C115.39 26.608 115.75 27.008 116.47 27.008C116.582 27.008 116.734 26.984 116.926 26.936C117.118 26.872 117.27 26.84 117.382 26.84C117.59 26.84 117.766 26.928 117.91 27.104C118.054 27.28 118.126 27.504 118.126 27.776C118.126 28.112 117.934 28.4 117.55 28.64C117.166 28.88 116.734 29 116.254 29C115.726 29 115.238 28.944 114.79 28.832C114.358 28.72 113.966 28.44 113.614 27.992C113.278 27.528 113.11 26.832 113.11 25.904V18.656H111.718C111.414 18.656 111.158 18.56 110.95 18.368C110.758 18.16 110.662 17.904 110.662 17.6C110.662 17.296 110.758 17.048 110.95 16.856C111.158 16.664 111.414 16.568 111.718 16.568H113.11V14.552C113.11 14.232 113.214 13.96 113.422 13.736C113.646 13.512 113.926 13.4 114.262 13.4C114.582 13.4 114.846 13.512 115.054 13.736C115.278 13.96 115.39 14.232 115.39 14.552V16.568H117.382C117.686 16.568 117.934 16.672 118.126 16.88C118.334 17.072 118.438 17.32 118.438 17.624C118.438 17.928 118.334 18.176 118.126 18.368C117.934 18.56 117.686 18.656 117.382 18.656H115.39ZM132.742 22.232C132.726 22.52 132.606 22.768 132.382 22.976C132.158 23.168 131.894 23.264 131.59 23.264H123.142C123.254 24.432 123.694 25.368 124.462 26.072C125.246 26.776 126.198 27.128 127.318 27.128C128.086 27.128 128.71 27.016 129.19 26.792C129.67 26.568 130.094 26.28 130.462 25.928C130.702 25.784 130.934 25.712 131.158 25.712C131.43 25.712 131.654 25.808 131.83 26C132.022 26.192 132.118 26.416 132.118 26.672C132.118 27.008 131.958 27.312 131.638 27.584C131.174 28.048 130.558 28.44 129.79 28.76C129.022 29.08 128.238 29.24 127.438 29.24C126.142 29.24 124.998 28.968 124.006 28.424C123.03 27.88 122.27 27.12 121.726 26.144C121.198 25.168 120.934 24.064 120.934 22.832C120.934 21.488 121.206 20.312 121.75 19.304C122.31 18.28 123.038 17.496 123.934 16.952C124.846 16.408 125.822 16.136 126.862 16.136C127.886 16.136 128.846 16.4 129.742 16.928C130.638 17.456 131.358 18.184 131.902 19.112C132.446 20.04 132.726 21.08 132.742 22.232ZM126.862 18.248C125.966 18.248 125.19 18.504 124.534 19.016C123.878 19.512 123.446 20.288 123.238 21.344H130.318V21.152C130.238 20.304 129.854 19.608 129.166 19.064C128.494 18.52 127.726 18.248 126.862 18.248ZM142.518 16.136C145.398 16.136 146.838 17.864 146.838 21.32V27.848C146.838 28.168 146.726 28.44 146.502 28.664C146.294 28.888 146.022 29 145.686 29C145.366 29 145.094 28.888 144.87 28.664C144.662 28.44 144.558 28.168 144.558 27.848V21.344C144.558 20.4 144.342 19.648 143.91 19.088C143.478 18.528 142.774 18.248 141.798 18.248C141.158 18.248 140.574 18.392 140.046 18.68C139.534 18.952 139.126 19.328 138.822 19.808C138.534 20.272 138.39 20.784 138.39 21.344V27.848C138.39 28.168 138.278 28.44 138.054 28.664C137.846 28.888 137.574 29 137.238 29C136.902 29 136.63 28.896 136.422 28.688C136.214 28.464 136.11 28.184 136.11 27.848V17.576C136.11 17.256 136.214 16.984 136.422 16.76C136.646 16.536 136.918 16.424 137.238 16.424C137.574 16.424 137.846 16.536 138.054 16.76C138.278 16.984 138.39 17.256 138.39 17.576V18.416C138.806 17.776 139.382 17.24 140.118 16.808C140.87 16.36 141.67 16.136 142.518 16.136ZM161.163 11.24C161.499 11.24 161.771 11.352 161.979 11.576C162.203 11.784 162.315 12.056 162.315 12.392V27.848C162.315 28.168 162.203 28.44 161.979 28.664C161.771 28.888 161.499 29 161.163 29C160.827 29 160.555 28.896 160.347 28.688C160.139 28.464 160.035 28.184 160.035 27.848V27.176C159.635 27.752 159.067 28.24 158.331 28.64C157.611 29.04 156.835 29.24 156.003 29.24C154.915 29.24 153.931 28.96 153.051 28.4C152.171 27.84 151.475 27.064 150.963 26.072C150.451 25.064 150.195 23.936 150.195 22.688C150.195 21.44 150.443 20.32 150.939 19.328C151.451 18.32 152.147 17.536 153.027 16.976C153.907 16.416 154.875 16.136 155.931 16.136C156.779 16.136 157.563 16.312 158.283 16.664C159.003 17.016 159.587 17.472 160.035 18.032V12.392C160.035 12.056 160.139 11.784 160.347 11.576C160.555 11.352 160.827 11.24 161.163 11.24ZM156.267 27.128C157.019 27.128 157.683 26.936 158.259 26.552C158.851 26.168 159.307 25.64 159.627 24.968C159.963 24.296 160.131 23.536 160.131 22.688C160.131 21.856 159.963 21.104 159.627 20.432C159.307 19.744 158.851 19.208 158.259 18.824C157.683 18.44 157.019 18.248 156.267 18.248C155.515 18.248 154.843 18.44 154.251 18.824C153.675 19.208 153.219 19.744 152.883 20.432C152.563 21.104 152.403 21.856 152.403 22.688C152.403 23.536 152.563 24.296 152.883 24.968C153.219 25.64 153.675 26.168 154.251 26.552C154.843 26.936 155.515 27.128 156.267 27.128ZM178.329 22.712C178.329 23.96 178.049 25.08 177.489 26.072C176.929 27.064 176.161 27.84 175.185 28.4C174.225 28.96 173.161 29.24 171.993 29.24C170.825 29.24 169.753 28.96 168.777 28.4C167.817 27.84 167.057 27.064 166.497 26.072C165.937 25.08 165.657 23.96 165.657 22.712C165.657 21.464 165.937 20.336 166.497 19.328C167.057 18.32 167.817 17.536 168.777 16.976C169.753 16.416 170.825 16.136 171.993 16.136C173.161 16.136 174.225 16.416 175.185 16.976C176.161 17.536 176.929 18.32 177.489 19.328C178.049 20.336 178.329 21.464 178.329 22.712ZM176.049 22.712C176.049 21.848 175.865 21.08 175.497 20.408C175.145 19.72 174.657 19.192 174.033 18.824C173.425 18.44 172.745 18.248 171.993 18.248C171.241 18.248 170.553 18.44 169.929 18.824C169.321 19.192 168.833 19.72 168.465 20.408C168.113 21.08 167.937 21.848 167.937 22.712C167.937 23.56 168.113 24.32 168.465 24.992C168.833 25.664 169.321 26.192 169.929 26.576C170.553 26.944 171.241 27.128 171.993 27.128C172.745 27.128 173.425 26.944 174.033 26.576C174.657 26.192 175.145 25.664 175.497 24.992C175.865 24.32 176.049 23.56 176.049 22.712ZM188.108 16.136C190.988 16.136 192.428 17.864 192.428 21.32V27.848C192.428 28.168 192.316 28.44 192.092 28.664C191.884 28.888 191.612 29 191.276 29C190.956 29 190.684 28.888 190.46 28.664C190.252 28.44 190.148 28.168 190.148 27.848V21.344C190.148 20.4 189.932 19.648 189.5 19.088C189.068 18.528 188.364 18.248 187.388 18.248C186.748 18.248 186.164 18.392 185.636 18.68C185.124 18.952 184.716 19.328 184.412 19.808C184.124 20.272 183.98 20.784 183.98 21.344V27.848C183.98 28.168 183.868 28.44 183.644 28.664C183.436 28.888 183.164 29 182.828 29C182.492 29 182.22 28.896 182.012 28.688C181.804 28.464 181.7 28.184 181.7 27.848V17.576C181.7 17.256 181.804 16.984 182.012 16.76C182.236 16.536 182.508 16.424 182.828 16.424C183.164 16.424 183.436 16.536 183.644 16.76C183.868 16.984 183.98 17.256 183.98 17.576V18.416C184.396 17.776 184.972 17.24 185.708 16.808C186.46 16.36 187.26 16.136 188.108 16.136ZM207.592 22.232C207.576 22.52 207.456 22.768 207.232 22.976C207.008 23.168 206.744 23.264 206.44 23.264H197.992C198.104 24.432 198.544 25.368 199.312 26.072C200.096 26.776 201.048 27.128 202.168 27.128C202.936 27.128 203.56 27.016 204.04 26.792C204.52 26.568 204.944 26.28 205.312 25.928C205.552 25.784 205.784 25.712 206.008 25.712C206.28 25.712 206.504 25.808 206.68 26C206.872 26.192 206.968 26.416 206.968 26.672C206.968 27.008 206.808 27.312 206.488 27.584C206.024 28.048 205.408 28.44 204.64 28.76C203.872 29.08 203.088 29.24 202.288 29.24C200.992 29.24 199.848 28.968 198.856 28.424C197.88 27.88 197.12 27.12 196.576 26.144C196.048 25.168 195.784 24.064 195.784 22.832C195.784 21.488 196.056 20.312 196.6 19.304C197.16 18.28 197.888 17.496 198.784 16.952C199.696 16.408 200.672 16.136 201.712 16.136C202.736 16.136 203.696 16.4 204.592 16.928C205.488 17.456 206.208 18.184 206.752 19.112C207.296 20.04 207.576 21.08 207.592 22.232ZM201.712 18.248C200.816 18.248 200.04 18.504 199.384 19.016C198.728 19.512 198.296 20.288 198.088 21.344H205.168V21.152C205.088 20.304 204.704 19.608 204.016 19.064C203.344 18.52 202.576 18.248 201.712 18.248Z" fill="#2D4EFB"/>
<path d="M60.344 14.408V13.608H59.544V14.408H60.344ZM60.344 19.376H59.544V20.176H60.344V19.376ZM67.064 19.688L66.4983 20.2537L66.5088 20.2642L66.5196 20.2742L67.064 19.688ZM67.064 21.248L66.5196 20.6618L66.5088 20.6718L66.4983 20.6823L67.064 21.248ZM60.344 21.56V20.76H59.544V21.56H60.344ZM59.984 28.664L59.4381 28.0792L59.4281 28.0886L59.4183 28.0983L59.984 28.664ZM58.328 28.664L57.7623 29.2297H57.7623L58.328 28.664ZM58.328 12.536L57.7623 11.9703L57.7623 11.9703L58.328 12.536ZM68.144 12.512L67.5783 13.0777L67.5888 13.0882L67.5996 13.0982L68.144 12.512ZM68.144 14.096L68.6884 14.6822L68.6992 14.6722L68.7097 14.6617L68.144 14.096ZM59.544 14.408V19.376H61.144V14.408H59.544ZM60.344 20.176H66.248V18.576H60.344V20.176ZM66.248 20.176C66.4046 20.176 66.462 20.2174 66.4983 20.2537L67.6297 19.1223C67.25 18.7426 66.7634 18.576 66.248 18.576V20.176ZM66.5196 20.2742C66.5635 20.3149 66.6 20.3659 66.6 20.504H68.2C68.2 19.9701 68.0125 19.4771 67.6084 19.1018L66.5196 20.2742ZM66.6 20.504C66.6 20.5547 66.5919 20.5947 66.5196 20.6618L67.6084 21.8342C67.9841 21.4853 68.2 21.0293 68.2 20.504H66.6ZM66.4983 20.6823C66.462 20.7186 66.4046 20.76 66.248 20.76V22.36C66.7634 22.36 67.25 22.1934 67.6297 21.8137L66.4983 20.6823ZM66.248 20.76H60.344V22.36H66.248V20.76ZM59.544 21.56V27.848H61.144V21.56H59.544ZM59.544 27.848C59.544 27.9398 59.5208 28.002 59.4381 28.0792L60.5299 29.2488C60.9272 28.878 61.144 28.3962 61.144 27.848H59.544ZM59.4183 28.0983C59.346 28.1706 59.2782 28.2 59.168 28.2V29.8C59.6978 29.8 60.174 29.6054 60.5497 29.2297L59.4183 28.0983ZM59.168 28.2C59.0299 28.2 58.9578 28.1625 58.8937 28.0983L57.7623 29.2297C58.1462 29.6135 58.6341 29.8 59.168 29.8V28.2ZM58.8937 28.0983C58.8214 28.026 58.792 27.9582 58.792 27.848H57.192C57.192 28.3778 57.3866 28.854 57.7623 29.2297L58.8937 28.0983ZM58.792 27.848V13.352H57.192V27.848H58.792ZM58.792 13.352C58.792 13.2418 58.8214 13.174 58.8937 13.1017L57.7623 11.9703C57.3866 12.346 57.192 12.8222 57.192 13.352H58.792ZM58.8937 13.1017C58.966 13.0294 59.0338 13 59.144 13V11.4C58.6142 11.4 58.138 11.5946 57.7623 11.9703L58.8937 13.1017ZM59.144 13H67.328V11.4H59.144V13ZM67.328 13C67.4846 13 67.542 13.0414 67.5783 13.0777L68.7097 11.9463C68.33 11.5666 67.8434 11.4 67.328 11.4V13ZM67.5996 13.0982C67.6435 13.1389 67.68 13.1899 67.68 13.328H69.28C69.28 12.7941 69.0925 12.3011 68.6884 11.9258L67.5996 13.0982ZM67.68 13.328C67.68 13.3816 67.6688 13.4399 67.5783 13.5303L68.7097 14.6617C69.0672 14.3041 69.28 13.8504 69.28 13.328H67.68ZM67.5996 13.5098C67.5311 13.5734 67.4565 13.608 67.328 13.608V15.208C67.8395 15.208 68.3089 15.0346 68.6884 14.6822L67.5996 13.5098ZM67.328 13.608H60.344V15.208H67.328V13.608ZM78.0239 16.136V15.336H78.0168L78.0097 15.3361L78.0239 16.136ZM79.1039 16.472L78.6294 17.116L78.6406 17.1243L78.6522 17.1322L79.1039 16.472ZM77.8799 18.296L77.627 19.0549L77.627 19.0549L77.8799 18.296ZM75.6239 18.656L76.0932 19.304L76.097 19.3011L75.6239 18.656ZM74.4719 20.072L73.7564 19.7142L73.7526 19.722L74.4719 20.072ZM73.7039 28.664L73.1383 28.0983L73.1278 28.1088L73.1177 28.1196L73.7039 28.664ZM72.0719 28.688L71.4857 29.2324L71.4958 29.2432L71.5063 29.2537L72.0719 28.688ZM72.0719 16.76L71.5063 16.1943L71.4958 16.2048L71.4857 16.2156L72.0719 16.76ZM73.7039 16.76L73.1177 17.3044L73.1278 17.3152L73.1383 17.3257L73.7039 16.76ZM74.0399 18.8H73.2399L74.7698 19.1277L74.0399 18.8ZM75.6239 16.904L76.0747 17.5651L76.0847 17.558L75.6239 16.904ZM78.0239 16.936C78.2874 16.936 78.4769 17.0037 78.6294 17.116L79.5785 15.828C79.123 15.4923 78.5924 15.336 78.0239 15.336V16.936ZM78.6522 17.1322C78.7255 17.1824 78.7478 17.2167 78.7526 17.2252C78.7553 17.2298 78.7564 17.2329 78.7572 17.236C78.7581 17.2393 78.7599 17.2479 78.7599 17.264H80.3599C80.3599 16.6368 80.0395 16.1428 79.5557 15.8118L78.6522 17.1322ZM78.7599 17.264C78.7599 17.5033 78.6985 17.5701 78.6823 17.5863L79.8136 18.7177C80.2134 18.3179 80.3599 17.7927 80.3599 17.264H78.7599ZM78.6823 17.5863C78.6501 17.6185 78.618 17.64 78.5279 17.64V19.24C79.0138 19.24 79.4618 19.0695 79.8136 18.7177L78.6823 17.5863ZM78.5279 17.64C78.5366 17.64 78.5094 17.6404 78.4315 17.623C78.3581 17.6067 78.2597 17.5793 78.1329 17.5371L77.627 19.0549C77.9268 19.1549 78.2467 19.24 78.5279 19.24V17.64ZM78.1329 17.5371C77.772 17.4167 77.4102 17.328 77.0879 17.328V18.928C77.1497 18.928 77.3159 18.9513 77.627 19.0549L78.1329 17.5371ZM77.0879 17.328C76.3899 17.328 75.7399 17.5789 75.1508 18.0109L76.097 19.3011C76.468 19.0291 76.794 18.928 77.0879 18.928V17.328ZM75.1547 18.008C74.5687 18.4324 74.1073 19.0125 73.7564 19.7142L75.1875 20.4298C75.4446 19.9155 75.7512 19.5516 76.0931 19.304L75.1547 18.008ZM73.7526 19.722C73.4055 20.4353 73.2399 21.2212 73.2399 22.064H74.8399C74.8399 21.4348 74.9623 20.8927 75.1913 20.422L73.7526 19.722ZM73.2399 22.064V27.848H74.8399V22.064H73.2399ZM73.2399 27.848C73.2399 27.9582 73.2105 28.026 73.1383 28.0983L74.2696 29.2297C74.6454 28.854 74.8399 28.3778 74.8399 27.848H73.2399ZM73.1177 28.1196C73.077 28.1635 73.026 28.2 72.8879 28.2V29.8C73.4219 29.8 73.9149 29.6125 74.2902 29.2084L73.1177 28.1196ZM72.8879 28.2C72.7313 28.2 72.6739 28.1586 72.6376 28.1223L71.5063 29.2537C71.886 29.6334 72.3726 29.8 72.8879 29.8V28.2ZM72.6582 28.1436C72.6017 28.0828 72.5599 28.0038 72.5599 27.848H70.9599C70.9599 28.3642 71.1262 28.8452 71.4857 29.2324L72.6582 28.1436ZM72.5599 27.848V17.576H70.9599V27.848H72.5599ZM72.5599 17.576C72.5599 17.4475 72.5945 17.3729 72.6582 17.3044L71.4857 16.2156C71.1334 16.5951 70.9599 17.0645 70.9599 17.576H72.5599ZM72.6376 17.3257C72.7099 17.2534 72.7777 17.224 72.8879 17.224V15.624C72.3582 15.624 71.882 15.8186 71.5063 16.1943L72.6376 17.3257ZM72.8879 17.224C73.026 17.224 73.077 17.2605 73.1177 17.3044L74.2902 16.2156C73.9149 15.8115 73.4219 15.624 72.8879 15.624V17.224ZM73.1383 17.3257C73.2105 17.398 73.2399 17.4658 73.2399 17.576H74.8399C74.8399 17.0462 74.6454 16.57 74.2696 16.1943L73.1383 17.3257ZM73.2399 17.576V18.8H74.8399V17.576H73.2399ZM74.7698 19.1277C75.0618 18.4772 75.4937 17.961 76.0746 17.565L75.1733 16.243C74.3461 16.807 73.7221 17.5548 73.3101 18.4723L74.7698 19.1277ZM76.0847 17.558C76.6523 17.1581 77.2954 16.9491 78.0382 16.9359L78.0097 15.3361C76.9605 15.3549 76.0036 15.6579 75.1632 16.25L76.0847 17.558ZM92.9189 26.072L92.2223 25.6787L92.9189 26.072ZM90.6149 28.4L90.2168 27.7061L90.2118 27.709L90.6149 28.4ZM84.2069 28.4L83.8038 29.091L83.8088 29.0939L84.2069 28.4ZM81.9269 26.072L81.2303 26.4653L81.9269 26.072ZM81.9269 19.328L81.2276 18.9395V18.9395L81.9269 19.328ZM84.2069 16.976L83.8088 16.2821L83.8038 16.285L84.2069 16.976ZM90.6149 16.976L90.2118 17.667L90.2168 17.6699L90.6149 16.976ZM92.9189 19.328L92.2196 19.7165L92.9189 19.328ZM90.9269 20.408L90.2147 20.7724L90.2199 20.7824L90.2253 20.7923L90.9269 20.408ZM89.4629 18.824L89.0357 19.5004L89.0461 19.5069L89.0565 19.5131L89.4629 18.824ZM85.3589 18.824L85.7732 19.5084L85.7782 19.5053L85.3589 18.824ZM83.8949 20.408L83.1895 20.0307L83.1863 20.0368L83.8949 20.408ZM83.8949 24.992L83.1863 25.3632L83.1897 25.3698L83.1933 25.3763L83.8949 24.992ZM85.3589 26.576L84.9317 27.2524L84.9421 27.2589L84.9526 27.2651L85.3589 26.576ZM89.4629 26.576L89.8772 27.2604L89.8822 27.2573L89.4629 26.576ZM90.9269 24.992L90.2253 24.6077L90.2217 24.6142L90.2183 24.6208L90.9269 24.992ZM92.9589 22.712C92.9589 23.8357 92.7082 24.818 92.2223 25.6787L93.6156 26.4653C94.2497 25.342 94.5589 24.0843 94.5589 22.712H92.9589ZM92.2223 25.6787C91.732 26.5471 91.0665 27.2186 90.2168 27.7061L91.0131 29.0939C92.1154 28.4614 92.9858 27.5809 93.6156 26.4653L92.2223 25.6787ZM90.2118 27.709C89.3805 28.1939 88.4568 28.44 87.4229 28.44V30.04C88.7251 30.04 89.9294 29.7261 91.018 29.091L90.2118 27.709ZM87.4229 28.44C86.3891 28.44 85.4552 28.1939 84.6051 27.7061L83.8088 29.0939C84.9107 29.7261 86.1208 30.04 87.4229 30.04V28.44ZM84.61 27.709C83.7757 27.2223 83.1157 26.5504 82.6236 25.6787L81.2303 26.4653C81.8582 27.5776 82.7182 28.4577 83.8038 29.091L84.61 27.709ZM82.6236 25.6787C82.1377 24.818 81.8869 23.8357 81.8869 22.712H80.2869C80.2869 24.0843 80.5962 25.342 81.2303 26.4653L82.6236 25.6787ZM81.8869 22.712C81.8869 21.5884 82.1377 20.596 82.6263 19.7165L81.2276 18.9395C80.5962 20.076 80.2869 21.3396 80.2869 22.712H81.8869ZM82.6263 19.7165C83.1192 18.8292 83.7789 18.1518 84.61 17.667L83.8038 16.285C82.7149 16.9202 81.8547 17.8108 81.2276 18.9395L82.6263 19.7165ZM84.6051 17.6699C85.4552 17.1821 86.3891 16.936 87.4229 16.936V15.336C86.1208 15.336 84.9107 15.6499 83.8088 16.2821L84.6051 17.6699ZM87.4229 16.936C88.4568 16.936 89.3805 17.1821 90.2118 17.667L91.018 16.285C89.9294 15.6499 88.7251 15.336 87.4229 15.336V16.936ZM90.2168 17.6699C91.0632 18.1555 91.7285 18.8325 92.2196 19.7165L93.6183 18.9395C92.9894 17.8075 92.1186 16.9164 91.0131 16.2821L90.2168 17.6699ZM92.2196 19.7165C92.7082 20.596 92.9589 21.5884 92.9589 22.712H94.5589C94.5589 21.3396 94.2497 20.076 93.6183 18.9395L92.2196 19.7165ZM92.2789 22.712C92.2789 21.7311 92.069 20.8279 91.6286 20.0237L90.2253 20.7923C90.5209 21.3321 90.6789 21.9649 90.6789 22.712H92.2789ZM91.6391 20.0436C91.2229 19.23 90.6328 18.5852 89.8693 18.1349L89.0565 19.5131C89.5411 19.7988 89.927 20.21 90.2147 20.7724L91.6391 20.0436ZM89.8901 18.1476C89.1483 17.6791 88.3189 17.448 87.4229 17.448V19.048C88.031 19.048 88.5616 19.2009 89.0357 19.5004L89.8901 18.1476ZM87.4229 17.448C86.527 17.448 85.6932 17.679 84.9397 18.1427L85.7782 19.5053C86.2727 19.201 86.8149 19.048 87.4229 19.048V17.448ZM84.9447 18.1396C84.202 18.5891 83.6184 19.2288 83.1895 20.0307L84.6004 20.7853C84.9075 20.2112 85.2999 19.7949 85.7732 19.5084L84.9447 18.1396ZM83.1863 20.0368C82.7664 20.8384 82.5669 21.7368 82.5669 22.712H84.1669C84.1669 21.9592 84.3195 21.3216 84.6036 20.7792L83.1863 20.0368ZM82.5669 22.712C82.5669 23.6738 82.7675 24.5637 83.1863 25.3632L84.6036 24.6208C84.3184 24.0763 84.1669 23.4462 84.1669 22.712H82.5669ZM83.1933 25.3763C83.6221 26.1593 84.2014 26.7911 84.9317 27.2524L85.7861 25.8996C85.3005 25.5929 84.9038 25.1687 84.5966 24.6077L83.1933 25.3763ZM84.9526 27.2651C85.7045 27.7085 86.5337 27.928 87.4229 27.928V26.328C86.8082 26.328 86.2614 26.1795 85.7653 25.8869L84.9526 27.2651ZM87.4229 27.928C88.3121 27.928 89.1369 27.7085 89.8772 27.2604L89.0487 25.8916C88.573 26.1795 88.0377 26.328 87.4229 26.328V27.928ZM89.8822 27.2573C90.6333 26.7951 91.2193 26.158 91.6356 25.3632L90.2183 24.6208C89.9306 25.17 89.5406 25.5889 89.0437 25.8947L89.8822 27.2573ZM91.6286 25.3763C92.0678 24.5742 92.2789 23.6797 92.2789 22.712H90.6789C90.6789 23.4403 90.5221 24.0658 90.2253 24.6077L91.6286 25.3763ZM107.522 28.664L106.956 28.0983L106.945 28.1088L106.935 28.1196L107.522 28.664ZM105.89 28.664L105.303 29.2084L105.313 29.2192L105.324 29.2297L105.89 28.664ZM104.93 19.088L105.563 18.5994H105.563L104.93 19.088ZM101.066 18.68L101.441 19.3865L101.449 19.3823L101.066 18.68ZM99.8416 19.808L99.1657 19.3799L99.1619 19.3861L99.8416 19.808ZM99.0736 28.664L98.5079 28.0983L98.4975 28.1088L98.4874 28.1196L99.0736 28.664ZM97.4416 28.688L96.8554 29.2324L96.8655 29.2432L96.8759 29.2537L97.4416 28.688ZM97.4416 16.76L96.8759 16.1943L96.8655 16.2048L96.8554 16.2156L97.4416 16.76ZM99.0736 16.76L98.4874 17.3044L98.4975 17.3152L98.5079 17.3257L99.0736 16.76ZM99.4096 18.416H98.6096V21.1147L100.08 18.852L99.4096 18.416ZM101.138 16.808L101.543 17.4979L101.547 17.4953L101.138 16.808ZM103.538 16.936C104.812 16.936 105.636 17.3114 106.163 17.9441C106.714 18.6049 107.058 19.6834 107.058 21.32H108.658C108.658 19.5006 108.282 17.9871 107.392 16.9199C106.48 15.8246 105.143 15.336 103.538 15.336V16.936ZM107.058 21.32V27.848H108.658V21.32H107.058ZM107.058 27.848C107.058 27.9582 107.028 28.026 106.956 28.0983L108.087 29.2297C108.463 28.854 108.658 28.3778 108.658 27.848H107.058ZM106.935 28.1196C106.895 28.1635 106.844 28.2 106.706 28.2V29.8C107.24 29.8 107.733 29.6125 108.108 29.2084L106.935 28.1196ZM106.706 28.2C106.595 28.2 106.528 28.1706 106.455 28.0983L105.324 29.2297C105.7 29.6054 106.176 29.8 106.706 29.8V28.2ZM106.476 28.1196C106.412 28.0511 106.378 27.9765 106.378 27.848H104.778C104.778 28.3595 104.951 28.8289 105.303 29.2084L106.476 28.1196ZM106.378 27.848V21.344H104.778V27.848H106.378ZM106.378 21.344C106.378 20.2821 106.134 19.3398 105.563 18.5994L104.296 19.5766C104.589 19.9562 104.778 20.5179 104.778 21.344H106.378ZM105.563 18.5994C104.927 17.7752 103.941 17.448 102.818 17.448V19.048C103.646 19.048 104.068 19.2808 104.296 19.5766L105.563 18.5994ZM102.818 17.448C102.053 17.448 101.336 17.6215 100.683 17.9777L101.449 19.3823C101.852 19.1625 102.303 19.048 102.818 19.048V17.448ZM100.69 17.9735C100.058 18.3093 99.5457 18.7801 99.1658 19.38L100.517 20.236C100.746 19.8759 101.049 19.5947 101.441 19.3865L100.69 17.9735ZM99.1619 19.3861C98.7932 19.9801 98.6096 20.6389 98.6096 21.344H100.21C100.21 20.9291 100.314 20.5639 100.521 20.2299L99.1619 19.3861ZM98.6096 21.344V27.848H100.21V21.344H98.6096ZM98.6096 27.848C98.6096 27.9582 98.5802 28.026 98.5079 28.0983L99.6393 29.2297C100.015 28.854 100.21 28.3778 100.21 27.848H98.6096ZM98.4874 28.1196C98.4467 28.1635 98.3957 28.2 98.2576 28.2V29.8C98.7915 29.8 99.2846 29.6125 99.6599 29.2084L98.4874 28.1196ZM98.2576 28.2C98.101 28.2 98.0436 28.1586 98.0073 28.1223L96.8759 29.2537C97.2557 29.6334 97.7422 29.8 98.2576 29.8V28.2ZM98.0279 28.1436C97.9714 28.0828 97.9296 28.0038 97.9296 27.848H96.3296C96.3296 28.3642 96.4959 28.8452 96.8554 29.2324L98.0279 28.1436ZM97.9296 27.848V17.576H96.3296V27.848H97.9296ZM97.9296 17.576C97.9296 17.4475 97.9642 17.3729 98.0279 17.3044L96.8554 16.2156C96.5031 16.5951 96.3296 17.0645 96.3296 17.576H97.9296ZM98.0073 17.3257C98.0796 17.2534 98.1474 17.224 98.2576 17.224V15.624C97.7279 15.624 97.2517 15.8186 96.8759 16.1943L98.0073 17.3257ZM98.2576 17.224C98.3957 17.224 98.4467 17.2605 98.4874 17.3044L99.6599 16.2156C99.2846 15.8115 98.7915 15.624 98.2576 15.624V17.224ZM98.5079 17.3257C98.5802 17.398 98.6096 17.4658 98.6096 17.576H100.21C100.21 17.0462 100.015 16.57 99.6393 16.1943L98.5079 17.3257ZM98.6096 17.576V18.416H100.21V17.576H98.6096ZM100.08 18.852C100.421 18.3279 100.901 17.8746 101.543 17.4979L100.733 16.1181C99.9023 16.6054 99.2302 17.2241 98.7389 17.98L100.08 18.852ZM101.547 17.4953C102.179 17.1186 102.839 16.936 103.538 16.936V15.336C102.541 15.336 101.6 15.6014 100.728 16.1207L101.547 17.4953ZM115.39 18.656V17.856H114.59V18.656H115.39ZM116.926 26.936L117.12 27.7121L117.15 27.7047L117.179 27.6949L116.926 26.936ZM117.55 28.64L117.126 27.9616L117.55 28.64ZM114.79 28.832L114.59 29.6064L114.596 29.6081L114.79 28.832ZM113.614 27.992L112.966 28.4612L112.976 28.4739L112.985 28.4863L113.614 27.992ZM113.11 18.656H113.91V17.856H113.11V18.656ZM110.95 18.368L110.363 18.9106L110.384 18.9341L110.408 18.9558L110.95 18.368ZM110.95 16.856L110.408 16.2682L110.396 16.279L110.385 16.2903L110.95 16.856ZM113.11 16.568V17.368H113.91V16.568H113.11ZM113.422 13.736L112.857 13.1703L112.846 13.1808L112.836 13.1916L113.422 13.736ZM115.054 13.736L114.468 14.2804L114.478 14.2912L114.489 14.3017L115.054 13.736ZM115.39 16.568H114.59V17.368H115.39V16.568ZM118.126 16.88L117.539 17.4226L117.56 17.4461L117.584 17.4678L118.126 16.88ZM118.126 18.368L117.584 17.7802L117.572 17.791L117.561 17.8023L118.126 18.368ZM114.59 18.656V25.808H116.19V18.656H114.59ZM114.59 25.808C114.59 26.3117 114.702 26.8389 115.066 27.2432C115.444 27.6635 115.964 27.808 116.47 27.808V26.208C116.362 26.208 116.303 26.1928 116.276 26.1828C116.263 26.178 116.257 26.1744 116.256 26.1736C116.255 26.1729 116.255 26.173 116.255 26.1728C116.255 26.1726 116.252 26.1689 116.246 26.1591C116.241 26.149 116.233 26.1313 116.224 26.1031C116.207 26.045 116.19 25.9506 116.19 25.808H114.59ZM116.47 27.808C116.679 27.808 116.905 27.7659 117.12 27.7121L116.732 26.1599C116.653 26.1797 116.591 26.1923 116.544 26.1998C116.52 26.2035 116.502 26.2056 116.49 26.2068C116.476 26.208 116.47 26.208 116.47 26.208V27.808ZM117.179 27.6949C117.255 27.6699 117.31 27.655 117.349 27.6468C117.39 27.6382 117.398 27.64 117.382 27.64V26.04C117.141 26.04 116.892 26.1041 116.673 26.1771L117.179 27.6949ZM117.382 27.64C117.378 27.64 117.368 27.6394 117.354 27.6363C117.34 27.6331 117.326 27.628 117.313 27.6215C117.285 27.6078 117.28 27.5964 117.291 27.6106L118.53 26.5974C118.25 26.2554 117.855 26.04 117.382 26.04V27.64ZM117.291 27.6106C117.297 27.617 117.326 27.651 117.326 27.776H118.926C118.926 27.357 118.812 26.943 118.53 26.5974L117.291 27.6106ZM117.326 27.776C117.326 27.7811 117.328 27.7835 117.317 27.8002C117.3 27.8254 117.251 27.884 117.126 27.9616L117.974 29.3184C118.501 28.989 118.926 28.4802 118.926 27.776H117.326ZM117.126 27.9616C116.877 28.1173 116.594 28.2 116.254 28.2V29.8C116.875 29.8 117.456 29.6427 117.974 29.3184L117.126 27.9616ZM116.254 28.2C115.783 28.2 115.361 28.1499 114.984 28.0559L114.596 29.6081C115.116 29.7381 115.67 29.8 116.254 29.8V28.2ZM114.991 28.0576C114.771 28.0004 114.517 27.8465 114.243 27.4977L112.985 28.4863C113.415 29.0335 113.946 29.4396 114.59 29.6064L114.991 28.0576ZM114.262 27.5228C114.07 27.2565 113.91 26.7593 113.91 25.904H112.31C112.31 26.9047 112.487 27.7995 112.966 28.4612L114.262 27.5228ZM113.91 25.904V18.656H112.31V25.904H113.91ZM113.11 17.856H111.718V19.456H113.11V17.856ZM111.718 17.856C111.599 17.856 111.542 17.8251 111.493 17.7802L110.408 18.9558C110.775 19.2949 111.23 19.456 111.718 19.456V17.856ZM111.538 17.8254C111.493 17.7767 111.462 17.7191 111.462 17.6H109.862C109.862 18.0889 110.024 18.5433 110.363 18.9106L111.538 17.8254ZM111.462 17.6C111.462 17.4804 111.493 17.4451 111.516 17.4217L110.385 16.2903C110.024 16.6509 109.862 17.1116 109.862 17.6H111.462ZM111.493 17.4438C111.542 17.3989 111.599 17.368 111.718 17.368V15.768C111.23 15.768 110.775 15.9291 110.408 16.2682L111.493 17.4438ZM111.718 17.368H113.11V15.768H111.718V17.368ZM113.91 16.568V14.552H112.31V16.568H113.91ZM113.91 14.552C113.91 14.4235 113.945 14.3489 114.009 14.2804L112.836 13.1916C112.484 13.5711 112.31 14.0405 112.31 14.552H113.91ZM113.988 14.3017C114.052 14.2375 114.124 14.2 114.262 14.2V12.6C113.729 12.6 113.241 12.7865 112.857 13.1703L113.988 14.3017ZM114.262 14.2C114.372 14.2 114.419 14.2278 114.468 14.2804L115.641 13.1916C115.273 12.7962 114.793 12.6 114.262 12.6V14.2ZM114.489 14.3017C114.561 14.374 114.59 14.4418 114.59 14.552H116.19C116.19 14.0222 115.996 13.546 115.62 13.1703L114.489 14.3017ZM114.59 14.552V16.568H116.19V14.552H114.59ZM115.39 17.368H117.382V15.768H115.39V17.368ZM117.382 17.368C117.482 17.368 117.51 17.3918 117.539 17.4226L118.714 16.3374C118.359 15.9522 117.891 15.768 117.382 15.768V17.368ZM117.584 17.4678C117.615 17.4963 117.638 17.5248 117.638 17.624H119.238C119.238 17.1152 119.054 16.6477 118.669 16.2922L117.584 17.4678ZM117.638 17.624C117.638 17.7232 117.615 17.7517 117.584 17.7802L118.669 18.9558C119.054 18.6003 119.238 18.1328 119.238 17.624H117.638ZM117.561 17.8023C117.537 17.8257 117.502 17.856 117.382 17.856V19.456C117.871 19.456 118.332 19.2942 118.692 18.9337L117.561 17.8023ZM117.382 17.856H115.39V19.456H117.382V17.856ZM132.742 22.232L133.541 22.2764L133.543 22.2487L133.542 22.2209L132.742 22.232ZM132.382 22.976L132.903 23.5834L132.915 23.5731L132.927 23.5622L132.382 22.976ZM123.142 23.264V22.464H122.262L122.346 23.3404L123.142 23.264ZM124.462 26.072L123.922 26.6618L123.928 26.6672L124.462 26.072ZM129.19 26.792L128.852 26.0671L129.19 26.792ZM130.462 25.928L130.051 25.242L129.974 25.288L129.909 25.3499L130.462 25.928ZM131.83 26L131.241 26.5406L131.252 26.5534L131.265 26.5657L131.83 26ZM131.638 27.584L131.12 26.9744L131.096 26.9954L131.073 27.0183L131.638 27.584ZM129.79 28.76L129.483 28.0215L129.79 28.76ZM124.006 28.424L123.617 29.1228L123.622 29.1255L124.006 28.424ZM121.726 26.144L121.023 26.5247L121.028 26.5335L121.726 26.144ZM121.75 19.304L121.049 18.9201L121.046 18.9241L121.75 19.304ZM123.934 16.952L123.525 16.2649L123.519 16.2682L123.934 16.952ZM131.902 19.112L132.593 18.7074V18.7074L131.902 19.112ZM124.534 19.016L125.017 19.6542L125.027 19.6467L124.534 19.016ZM123.238 21.344L122.454 21.1894L122.265 22.144H123.238V21.344ZM130.318 21.344V22.144H131.118V21.344H130.318ZM130.318 21.152H131.118V21.1143L131.115 21.0769L130.318 21.152ZM129.166 19.064L128.663 19.6858L128.67 19.6915L129.166 19.064ZM131.944 22.1876C131.94 22.2556 131.92 22.3134 131.838 22.3898L132.927 23.5622C133.293 23.2226 133.513 22.7844 133.541 22.2764L131.944 22.1876ZM131.862 22.3686C131.788 22.4322 131.71 22.464 131.59 22.464V24.064C132.079 24.064 132.529 23.9038 132.903 23.5834L131.862 22.3686ZM131.59 22.464H123.142V24.064H131.59V22.464ZM122.346 23.3404C122.474 24.6785 122.989 25.807 123.922 26.6617L125.003 25.4823C124.399 24.929 124.034 24.1855 123.939 23.1876L122.346 23.3404ZM123.928 26.6672C124.869 27.5119 126.015 27.928 127.318 27.928V26.328C126.382 26.328 125.624 26.0401 124.997 25.4768L123.928 26.6672ZM127.318 27.928C128.155 27.928 128.906 27.8075 129.529 27.5169L128.852 26.0671C128.515 26.2245 128.018 26.328 127.318 26.328V27.928ZM129.529 27.5169C130.085 27.2575 130.582 26.9208 131.015 26.5061L129.909 25.3499C129.607 25.6392 129.256 25.8785 128.852 26.0671L129.529 27.5169ZM130.874 26.614C131.02 26.5261 131.112 26.512 131.158 26.512V24.912C130.757 24.912 130.384 25.0419 130.051 25.242L130.874 26.614ZM131.158 26.512C131.199 26.512 131.214 26.5187 131.215 26.5193C131.217 26.52 131.219 26.521 131.222 26.5232C131.225 26.5255 131.232 26.5306 131.241 26.5406L132.42 25.4594C132.085 25.094 131.643 24.912 131.158 24.912V26.512ZM131.265 26.5657C131.317 26.6178 131.318 26.642 131.318 26.672H132.918C132.918 26.19 132.728 25.7662 132.396 25.4343L131.265 26.5657ZM131.318 26.672C131.318 26.7164 131.31 26.8132 131.12 26.9744L132.157 28.1936C132.607 27.8108 132.918 27.2996 132.918 26.672H131.318ZM131.073 27.0183C130.7 27.3915 130.179 27.7314 129.483 28.0215L130.098 29.4985C130.938 29.1486 131.649 28.7045 132.204 28.1497L131.073 27.0183ZM129.483 28.0215C128.808 28.3026 128.129 28.44 127.438 28.44V30.04C128.348 30.04 129.237 29.8574 130.098 29.4985L129.483 28.0215ZM127.438 28.44C126.257 28.44 125.249 28.193 124.391 27.7225L123.622 29.1255C124.748 29.743 126.028 30.04 127.438 30.04V28.44ZM124.396 27.7252C123.55 27.2536 122.897 26.6007 122.425 25.7545L121.028 26.5335C121.644 27.6393 122.511 28.5064 123.617 29.1228L124.396 27.7252ZM122.43 25.7633C121.972 24.9167 121.734 23.946 121.734 22.832H120.134C120.134 24.182 120.425 25.4193 121.023 26.5247L122.43 25.7633ZM121.734 22.832C121.734 21.5976 121.984 20.5565 122.454 19.6839L121.046 18.9241C120.429 20.0675 120.134 21.3784 120.134 22.832H121.734ZM122.452 19.6878C122.953 18.773 123.587 18.0988 124.35 17.6358L123.519 16.2682C122.49 16.8932 121.668 17.787 121.049 18.9201L122.452 19.6878ZM124.344 17.6391C125.135 17.1673 125.97 16.936 126.862 16.936V15.336C125.675 15.336 124.558 15.6487 123.525 16.2649L124.344 17.6391ZM126.862 16.936C127.741 16.936 128.561 17.1606 129.336 17.6172L130.149 16.2388C129.132 15.6394 128.032 15.336 126.862 15.336V16.936ZM129.336 17.6172C130.111 18.0736 130.735 18.7019 131.212 19.5166L132.593 18.7074C131.982 17.6661 131.166 16.8384 130.149 16.2388L129.336 17.6172ZM131.212 19.5166C131.681 20.3167 131.928 21.2194 131.943 22.2431L133.542 22.2209C133.525 20.9406 133.212 19.7633 132.593 18.7074L131.212 19.5166ZM126.862 17.448C125.803 17.448 124.85 17.7549 124.042 18.3853L125.027 19.6467C125.531 19.2531 126.13 19.048 126.862 19.048V17.448ZM124.052 18.3779C123.196 19.0252 122.688 20.0014 122.454 21.1894L124.023 21.4986C124.205 20.5746 124.561 19.9988 125.017 19.6541L124.052 18.3779ZM123.238 22.144H130.318V20.544H123.238V22.144ZM131.118 21.344V21.152H129.518V21.344H131.118ZM131.115 21.0769C131.014 20.0043 130.516 19.1114 129.663 18.4365L128.67 19.6915C129.193 20.1046 129.463 20.6037 129.522 21.2271L131.115 21.0769ZM129.67 18.4422C128.855 17.783 127.91 17.448 126.862 17.448V19.048C127.543 19.048 128.133 19.257 128.663 19.6858L129.67 18.4422ZM146.502 28.664L145.936 28.0983L145.926 28.1088L145.916 28.1196L146.502 28.664ZM144.87 28.664L144.284 29.2084L144.294 29.2192L144.304 29.2297L144.87 28.664ZM143.91 19.088L144.543 18.5994L143.91 19.088ZM140.046 18.68L140.421 19.3865L140.429 19.3823L140.046 18.68ZM138.822 19.808L138.146 19.3799L138.142 19.3861L138.822 19.808ZM138.054 28.664L137.488 28.0983L137.478 28.1088L137.468 28.1196L138.054 28.664ZM136.422 28.688L135.836 29.2324L135.846 29.2432L135.856 29.2537L136.422 28.688ZM136.422 16.76L135.856 16.1943L135.846 16.2048L135.836 16.2156L136.422 16.76ZM138.054 16.76L137.468 17.3044L137.478 17.3152L137.488 17.3257L138.054 16.76ZM138.39 18.416H137.59V21.1147L139.061 18.852L138.39 18.416ZM140.118 16.808L140.523 17.4979L140.527 17.4953L140.118 16.808ZM142.518 16.936C143.792 16.936 144.616 17.3114 145.143 17.9441C145.694 18.6049 146.038 19.6834 146.038 21.32H147.638C147.638 19.5006 147.262 17.9871 146.373 16.9199C145.46 15.8246 144.123 15.336 142.518 15.336V16.936ZM146.038 21.32V27.848H147.638V21.32H146.038ZM146.038 27.848C146.038 27.9582 146.009 28.026 145.936 28.0983L147.068 29.2297C147.443 28.854 147.638 28.3778 147.638 27.848H146.038ZM145.916 28.1196C145.875 28.1635 145.824 28.2 145.686 28.2V29.8C146.22 29.8 146.713 29.6125 147.088 29.2084L145.916 28.1196ZM145.686 28.2C145.576 28.2 145.508 28.1706 145.436 28.0983L144.304 29.2297C144.68 29.6054 145.156 29.8 145.686 29.8V28.2ZM145.456 28.1196C145.393 28.0511 145.358 27.9765 145.358 27.848H143.758C143.758 28.3595 143.931 28.8289 144.284 29.2084L145.456 28.1196ZM145.358 27.848V21.344H143.758V27.848H145.358ZM145.358 21.344C145.358 20.2821 145.115 19.3398 144.543 18.5994L143.277 19.5766C143.569 19.9562 143.758 20.5179 143.758 21.344H145.358ZM144.543 18.5994C143.908 17.7752 142.922 17.448 141.798 17.448V19.048C142.626 19.048 143.048 19.2808 143.277 19.5766L144.543 18.5994ZM141.798 17.448C141.033 17.448 140.316 17.6215 139.663 17.9777L140.429 19.3823C140.832 19.1625 141.283 19.048 141.798 19.048V17.448ZM139.671 17.9735C139.039 18.3093 138.526 18.7801 138.146 19.38L139.498 20.236C139.726 19.8759 140.029 19.5947 140.421 19.3865L139.671 17.9735ZM138.142 19.3861C137.774 19.9801 137.59 20.6389 137.59 21.344H139.19C139.19 20.9291 139.294 20.5639 139.502 20.2299L138.142 19.3861ZM137.59 21.344V27.848H139.19V21.344H137.59ZM137.59 27.848C137.59 27.9582 137.561 28.026 137.488 28.0983L138.62 29.2297C138.995 28.854 139.19 28.3778 139.19 27.848H137.59ZM137.468 28.1196C137.427 28.1635 137.376 28.2 137.238 28.2V29.8C137.772 29.8 138.265 29.6125 138.64 29.2084L137.468 28.1196ZM137.238 28.2C137.081 28.2 137.024 28.1586 136.988 28.1223L135.856 29.2537C136.236 29.6334 136.723 29.8 137.238 29.8V28.2ZM137.008 28.1436C136.952 28.0828 136.91 28.0038 136.91 27.848H135.31C135.31 28.3642 135.476 28.8452 135.836 29.2324L137.008 28.1436ZM136.91 27.848V17.576H135.31V27.848H136.91ZM136.91 17.576C136.91 17.4475 136.945 17.3729 137.008 17.3044L135.836 16.2156C135.483 16.5951 135.31 17.0645 135.31 17.576H136.91ZM136.988 17.3257C137.06 17.2534 137.128 17.224 137.238 17.224V15.624C136.708 15.624 136.232 15.8186 135.856 16.1943L136.988 17.3257ZM137.238 17.224C137.376 17.224 137.427 17.2605 137.468 17.3044L138.64 16.2156C138.265 15.8115 137.772 15.624 137.238 15.624V17.224ZM137.488 17.3257C137.561 17.398 137.59 17.4658 137.59 17.576H139.19C139.19 17.0462 138.995 16.57 138.62 16.1943L137.488 17.3257ZM137.59 17.576V18.416H139.19V17.576H137.59ZM139.061 18.852C139.401 18.3279 139.881 17.8746 140.523 17.4979L139.713 16.1181C138.883 16.6054 138.211 17.2241 137.719 17.98L139.061 18.852ZM140.527 17.4953C141.16 17.1186 141.819 16.936 142.518 16.936V15.336C141.521 15.336 140.58 15.6014 139.708 16.1207L140.527 17.4953ZM161.979 11.576L161.393 12.1204L161.413 12.1421L161.434 12.1622L161.979 11.576ZM161.979 28.664L161.413 28.0983L161.403 28.1088L161.393 28.1196L161.979 28.664ZM160.347 28.688L159.761 29.2324L159.771 29.2432L159.781 29.2537L160.347 28.688ZM160.035 27.176H160.835V24.6215L159.378 26.7197L160.035 27.176ZM158.331 28.64L157.949 27.9371L157.942 27.9407L158.331 28.64ZM153.051 28.4L152.621 29.0749L153.051 28.4ZM150.963 26.072L150.249 26.4343L150.252 26.4389L150.963 26.072ZM150.939 19.328L150.225 18.9657L150.223 18.9702L150.939 19.328ZM153.027 16.976L152.597 16.3011V16.3011L153.027 16.976ZM158.283 16.664L157.931 17.3827L158.283 16.664ZM160.035 18.032L159.41 18.5318L160.835 20.3126V18.032H160.035ZM160.347 11.576L160.912 12.1417L160.923 12.1312L160.933 12.1204L160.347 11.576ZM158.259 26.552L157.823 25.8808L157.815 25.8864L158.259 26.552ZM159.627 24.968L158.911 24.6102L158.908 24.6171L158.904 24.6241L159.627 24.968ZM159.627 20.432L158.901 20.7694L158.906 20.7796L158.911 20.7898L159.627 20.432ZM158.259 18.824L157.815 19.4897L157.823 19.4952L158.259 18.824ZM154.251 18.824L153.815 18.1528L153.807 18.1584L154.251 18.824ZM152.883 20.432L152.164 20.0809L152.16 20.0881L152.883 20.432ZM152.883 24.968L152.16 25.3119L152.164 25.3189L152.167 25.3258L152.883 24.968ZM154.251 26.552L153.807 27.2177L153.815 27.2232L154.251 26.552ZM161.163 12.04C161.301 12.04 161.352 12.0765 161.393 12.1204L162.565 11.0316C162.19 10.6275 161.697 10.44 161.163 10.44V12.04ZM161.434 12.1622C161.478 12.2029 161.515 12.2539 161.515 12.392H163.115C163.115 11.8581 162.927 11.3651 162.523 10.9898L161.434 12.1622ZM161.515 12.392V27.848H163.115V12.392H161.515ZM161.515 27.848C161.515 27.9582 161.485 28.026 161.413 28.0983L162.544 29.2297C162.92 28.854 163.115 28.3778 163.115 27.848H161.515ZM161.393 28.1196C161.352 28.1635 161.301 28.2 161.163 28.2V29.8C161.697 29.8 162.19 29.6125 162.565 29.2084L161.393 28.1196ZM161.163 28.2C161.006 28.2 160.949 28.1586 160.912 28.1223L159.781 29.2537C160.161 29.6334 160.647 29.8 161.163 29.8V28.2ZM160.933 28.1436C160.877 28.0828 160.835 28.0038 160.835 27.848H159.235C159.235 28.3642 159.401 28.8452 159.761 29.2324L160.933 28.1436ZM160.835 27.848V27.176H159.235V27.848H160.835ZM159.378 26.7197C159.061 27.1751 158.596 27.5852 157.949 27.9371L158.713 29.3429C159.537 28.8948 160.208 28.3289 160.692 27.6323L159.378 26.7197ZM157.942 27.9407C157.342 28.274 156.7 28.44 156.003 28.44V30.04C156.969 30.04 157.879 29.806 158.719 29.3393L157.942 27.9407ZM156.003 28.44C155.06 28.44 154.226 28.1998 153.48 27.7251L152.621 29.0749C153.635 29.7202 154.769 30.04 156.003 30.04V28.44ZM153.48 27.7251C152.728 27.2464 152.125 26.5805 151.674 25.7051L150.252 26.4389C150.824 27.5475 151.613 28.4336 152.621 29.0749L153.48 27.7251ZM151.676 25.7097C151.227 24.8252 150.995 23.8234 150.995 22.688H149.395C149.395 24.0486 149.675 25.3028 150.249 26.4343L151.676 25.7097ZM150.995 22.688C150.995 21.5485 151.22 20.5535 151.654 19.6858L150.223 18.9702C149.665 20.0865 149.395 21.3315 149.395 22.688H150.995ZM151.652 19.6903C152.105 18.799 152.707 18.1276 153.456 17.6509L152.597 16.3011C151.586 16.9444 150.797 17.841 150.225 18.9657L151.652 19.6903ZM153.456 17.6509C154.206 17.1737 155.025 16.936 155.931 16.936V15.336C154.725 15.336 153.607 15.6583 152.597 16.3011L153.456 17.6509ZM155.931 16.936C156.664 16.936 157.327 17.0873 157.931 17.3827L158.634 15.9453C157.798 15.5367 156.893 15.336 155.931 15.336V16.936ZM157.931 17.3827C158.558 17.6889 159.044 18.0744 159.41 18.5318L160.659 17.5322C160.129 16.8696 159.448 16.3431 158.634 15.9453L157.931 17.3827ZM160.835 18.032V12.392H159.235V18.032H160.835ZM160.835 12.392C160.835 12.2354 160.876 12.178 160.912 12.1417L159.781 11.0103C159.401 11.39 159.235 11.8766 159.235 12.392H160.835ZM160.933 12.1204C160.974 12.0765 161.025 12.04 161.163 12.04V10.44C160.629 10.44 160.136 10.6275 159.761 11.0316L160.933 12.1204ZM156.267 27.928C157.162 27.928 157.984 27.6968 158.703 27.2176L157.815 25.8864C157.382 26.1752 156.875 26.328 156.267 26.328V27.928ZM158.694 27.2232C159.417 26.7542 159.969 26.1098 160.349 25.3119L158.904 24.6241C158.644 25.1702 158.284 25.5818 157.823 25.8808L158.694 27.2232ZM160.342 25.3258C160.741 24.5291 160.931 23.6441 160.931 22.688H159.331C159.331 23.4279 159.185 24.0629 158.911 24.6102L160.342 25.3258ZM160.931 22.688C160.931 21.7453 160.74 20.8688 160.342 20.0742L158.911 20.7898C159.186 21.3392 159.331 21.9667 159.331 22.688H160.931ZM160.352 20.0946C159.974 19.281 159.422 18.6248 158.694 18.1528L157.823 19.4952C158.28 19.7912 158.64 20.207 158.901 20.7694L160.352 20.0946ZM158.703 18.1584C157.984 17.6792 157.162 17.448 156.267 17.448V19.048C156.875 19.048 157.382 19.2008 157.815 19.4896L158.703 18.1584ZM156.267 17.448C155.371 17.448 154.546 17.6791 153.815 18.1528L154.686 19.4952C155.14 19.2009 155.659 19.048 156.267 19.048V17.448ZM153.807 18.1584C153.101 18.6291 152.555 19.2794 152.164 20.0809L153.602 20.7831C153.882 20.2086 154.249 19.7869 154.695 19.4896L153.807 18.1584ZM152.16 20.0881C151.784 20.8796 151.603 21.7511 151.603 22.688H153.203C153.203 21.9609 153.342 21.3284 153.605 20.7759L152.16 20.0881ZM151.603 22.688C151.603 23.6384 151.783 24.5185 152.16 25.3119L153.605 24.6241C153.343 24.0735 153.203 23.4336 153.203 22.688H151.603ZM152.167 25.3258C152.56 26.1114 153.105 26.7499 153.807 27.2176L154.695 25.8864C154.244 25.5861 153.878 25.1686 153.598 24.6102L152.167 25.3258ZM153.815 27.2232C154.546 27.6969 155.371 27.928 156.267 27.928V26.328C155.659 26.328 155.14 26.1751 154.686 25.8808L153.815 27.2232ZM177.489 26.072L176.792 25.6787L177.489 26.072ZM175.185 28.4L174.787 27.7061L174.782 27.709L175.185 28.4ZM168.777 28.4L168.374 29.091L168.379 29.0939L168.777 28.4ZM166.497 26.072L165.8 26.4653L166.497 26.072ZM166.497 19.328L165.798 18.9395V18.9395L166.497 19.328ZM168.777 16.976L168.379 16.2821L168.374 16.285L168.777 16.976ZM175.185 16.976L174.782 17.667L174.787 17.6699L175.185 16.976ZM177.489 19.328L176.79 19.7165L177.489 19.328ZM175.497 20.408L174.785 20.7724L174.79 20.7824L174.795 20.7923L175.497 20.408ZM174.033 18.824L173.606 19.5004L173.616 19.5069L173.627 19.5131L174.033 18.824ZM169.929 18.824L170.343 19.5084L170.348 19.5053L169.929 18.824ZM168.465 20.408L167.759 20.0307L167.756 20.0368L168.465 20.408ZM168.465 24.992L167.756 25.3632L167.76 25.3698L167.763 25.3763L168.465 24.992ZM169.929 26.576L169.502 27.2524L169.512 27.2589L169.523 27.2651L169.929 26.576ZM174.033 26.576L174.447 27.2604L174.452 27.2573L174.033 26.576ZM175.497 24.992L174.795 24.6077L174.792 24.6142L174.788 24.6208L175.497 24.992ZM177.529 22.712C177.529 23.8357 177.278 24.818 176.792 25.6787L178.186 26.4653C178.82 25.342 179.129 24.0843 179.129 22.712H177.529ZM176.792 25.6787C176.302 26.5471 175.636 27.2186 174.787 27.7061L175.583 29.0939C176.685 28.4614 177.556 27.5809 178.186 26.4653L176.792 25.6787ZM174.782 27.709C173.951 28.1939 173.027 28.44 171.993 28.44V30.04C173.295 30.04 174.499 29.7261 175.588 29.091L174.782 27.709ZM171.993 28.44C170.959 28.44 170.025 28.1939 169.175 27.7061L168.379 29.0939C169.481 29.7261 170.691 30.04 171.993 30.04V28.44ZM169.18 27.709C168.346 27.2223 167.686 26.5504 167.194 25.6787L165.8 26.4653C166.428 27.5776 167.288 28.4577 168.374 29.091L169.18 27.709ZM167.194 25.6787C166.708 24.818 166.457 23.8357 166.457 22.712H164.857C164.857 24.0843 165.166 25.342 165.8 26.4653L167.194 25.6787ZM166.457 22.712C166.457 21.5884 166.708 20.596 167.196 19.7165L165.798 18.9395C165.166 20.076 164.857 21.3396 164.857 22.712H166.457ZM167.196 19.7165C167.689 18.8292 168.349 18.1518 169.18 17.667L168.374 16.285C167.285 16.9202 166.425 17.8108 165.798 18.9395L167.196 19.7165ZM169.175 17.6699C170.025 17.1821 170.959 16.936 171.993 16.936V15.336C170.691 15.336 169.481 15.6499 168.379 16.2821L169.175 17.6699ZM171.993 16.936C173.027 16.936 173.951 17.1821 174.782 17.667L175.588 16.285C174.499 15.6499 173.295 15.336 171.993 15.336V16.936ZM174.787 17.6699C175.633 18.1555 176.299 18.8325 176.79 19.7165L178.188 18.9395C177.559 17.8075 176.689 16.9164 175.583 16.2821L174.787 17.6699ZM176.79 19.7165C177.278 20.596 177.529 21.5884 177.529 22.712H179.129C179.129 21.3396 178.82 20.076 178.188 18.9395L176.79 19.7165ZM176.849 22.712C176.849 21.7311 176.639 20.8279 176.199 20.0237L174.795 20.7923C175.091 21.3321 175.249 21.9649 175.249 22.712H176.849ZM176.209 20.0436C175.793 19.23 175.203 18.5852 174.439 18.1349L173.627 19.5131C174.111 19.7988 174.497 20.21 174.785 20.7724L176.209 20.0436ZM174.46 18.1476C173.718 17.6791 172.889 17.448 171.993 17.448V19.048C172.601 19.048 173.132 19.2009 173.606 19.5004L174.46 18.1476ZM171.993 17.448C171.097 17.448 170.263 17.679 169.51 18.1427L170.348 19.5053C170.843 19.201 171.385 19.048 171.993 19.048V17.448ZM169.515 18.1396C168.772 18.5891 168.188 19.2288 167.76 20.0307L169.17 20.7853C169.477 20.2112 169.87 19.7949 170.343 19.5084L169.515 18.1396ZM167.756 20.0368C167.336 20.8384 167.137 21.7368 167.137 22.712H168.737C168.737 21.9592 168.889 21.3216 169.174 20.7792L167.756 20.0368ZM167.137 22.712C167.137 23.6738 167.337 24.5637 167.756 25.3632L169.174 24.6208C168.888 24.0763 168.737 23.4462 168.737 22.712H167.137ZM167.763 25.3763C168.192 26.1593 168.771 26.7911 169.502 27.2524L170.356 25.8996C169.87 25.5929 169.474 25.1687 169.167 24.6077L167.763 25.3763ZM169.523 27.2651C170.274 27.7085 171.104 27.928 171.993 27.928V26.328C171.378 26.328 170.831 26.1795 170.335 25.8869L169.523 27.2651ZM171.993 27.928C172.882 27.928 173.707 27.7085 174.447 27.2604L173.619 25.8916C173.143 26.1795 172.608 26.328 171.993 26.328V27.928ZM174.452 27.2573C175.203 26.7951 175.789 26.158 176.206 25.3632L174.788 24.6208C174.501 25.17 174.111 25.5889 173.614 25.8947L174.452 27.2573ZM176.199 25.3763C176.638 24.5742 176.849 23.6797 176.849 22.712H175.249C175.249 23.4403 175.092 24.0658 174.795 24.6077L176.199 25.3763ZM192.092 28.664L191.526 28.0983L191.515 28.1088L191.505 28.1196L192.092 28.664ZM190.46 28.664L189.873 29.2084L189.883 29.2192L189.894 29.2297L190.46 28.664ZM189.5 19.088L190.133 18.5994L189.5 19.088ZM185.636 18.68L186.011 19.3865L186.019 19.3823L185.636 18.68ZM184.412 19.808L183.736 19.3799L183.732 19.3861L184.412 19.808ZM183.644 28.664L183.078 28.0983L183.067 28.1088L183.057 28.1196L183.644 28.664ZM182.012 28.688L181.425 29.2324L181.435 29.2432L181.446 29.2537L182.012 28.688ZM182.012 16.76L181.446 16.1943L181.435 16.2048L181.425 16.2156L182.012 16.76ZM183.644 16.76L183.057 17.3044L183.067 17.3152L183.078 17.3257L183.644 16.76ZM183.98 18.416H183.18V21.1147L184.65 18.852L183.98 18.416ZM185.708 16.808L186.113 17.4979L186.117 17.4953L185.708 16.808ZM188.108 16.936C189.382 16.936 190.206 17.3114 190.733 17.9441C191.284 18.6049 191.628 19.6834 191.628 21.32H193.228C193.228 19.5006 192.852 17.9871 191.962 16.9199C191.05 15.8246 189.713 15.336 188.108 15.336V16.936ZM191.628 21.32V27.848H193.228V21.32H191.628ZM191.628 27.848C191.628 27.9582 191.598 28.026 191.526 28.0983L192.657 29.2297C193.033 28.854 193.228 28.3778 193.228 27.848H191.628ZM191.505 28.1196C191.465 28.1635 191.414 28.2 191.276 28.2V29.8C191.81 29.8 192.303 29.6125 192.678 29.2084L191.505 28.1196ZM191.276 28.2C191.165 28.2 191.098 28.1706 191.025 28.0983L189.894 29.2297C190.27 29.6054 190.746 29.8 191.276 29.8V28.2ZM191.046 28.1196C190.982 28.0511 190.948 27.9765 190.948 27.848H189.348C189.348 28.3595 189.521 28.8289 189.873 29.2084L191.046 28.1196ZM190.948 27.848V21.344H189.348V27.848H190.948ZM190.948 21.344C190.948 20.2821 190.704 19.3398 190.133 18.5994L188.866 19.5766C189.159 19.9562 189.348 20.5179 189.348 21.344H190.948ZM190.133 18.5994C189.497 17.7752 188.511 17.448 187.388 17.448V19.048C188.216 19.048 188.638 19.2808 188.866 19.5766L190.133 18.5994ZM187.388 17.448C186.623 17.448 185.906 17.6215 185.253 17.9777L186.019 19.3823C186.422 19.1625 186.873 19.048 187.388 19.048V17.448ZM185.26 17.9735C184.628 18.3093 184.116 18.7801 183.736 19.38L185.087 20.236C185.316 19.8759 185.619 19.5947 186.011 19.3865L185.26 17.9735ZM183.732 19.3861C183.363 19.9801 183.18 20.6389 183.18 21.344H184.78C184.78 20.9291 184.884 20.5639 185.091 20.2299L183.732 19.3861ZM183.18 21.344V27.848H184.78V21.344H183.18ZM183.18 27.848C183.18 27.9582 183.15 28.026 183.078 28.0983L184.209 29.2297C184.585 28.854 184.78 28.3778 184.78 27.848H183.18ZM183.057 28.1196C183.017 28.1635 182.966 28.2 182.828 28.2V29.8C183.362 29.8 183.855 29.6125 184.23 29.2084L183.057 28.1196ZM182.828 28.2C182.671 28.2 182.614 28.1586 182.577 28.1223L181.446 29.2537C181.826 29.6334 182.312 29.8 182.828 29.8V28.2ZM182.598 28.1436C182.541 28.0828 182.5 28.0038 182.5 27.848H180.9C180.9 28.3642 181.066 28.8452 181.425 29.2324L182.598 28.1436ZM182.5 27.848V17.576H180.9V27.848H182.5ZM182.5 17.576C182.5 17.4475 182.534 17.3729 182.598 17.3044L181.425 16.2156C181.073 16.5951 180.9 17.0645 180.9 17.576H182.5ZM182.577 17.3257C182.65 17.2534 182.717 17.224 182.828 17.224V15.624C182.298 15.624 181.822 15.8186 181.446 16.1943L182.577 17.3257ZM182.828 17.224C182.966 17.224 183.017 17.2605 183.057 17.3044L184.23 16.2156C183.855 15.8115 183.362 15.624 182.828 15.624V17.224ZM183.078 17.3257C183.15 17.398 183.18 17.4658 183.18 17.576H184.78C184.78 17.0462 184.585 16.57 184.209 16.1943L183.078 17.3257ZM183.18 17.576V18.416H184.78V17.576H183.18ZM184.65 18.852C184.991 18.3279 185.471 17.8746 186.113 17.4979L185.303 16.1181C184.472 16.6054 183.8 17.2241 183.309 17.98L184.65 18.852ZM186.117 17.4953C186.749 17.1186 187.409 16.936 188.108 16.936V15.336C187.111 15.336 186.17 15.6014 185.298 16.1207L186.117 17.4953ZM207.592 22.232L208.391 22.2764L208.393 22.2487L208.392 22.2209L207.592 22.232ZM207.232 22.976L207.753 23.5834L207.765 23.5731L207.777 23.5622L207.232 22.976ZM197.992 23.264V22.464H197.112L197.196 23.3404L197.992 23.264ZM199.312 26.072L198.772 26.6618L198.778 26.6672L199.312 26.072ZM204.04 26.792L203.702 26.0671L204.04 26.792ZM205.312 25.928L204.901 25.242L204.824 25.288L204.759 25.3499L205.312 25.928ZM206.68 26L206.091 26.5406L206.102 26.5534L206.115 26.5657L206.68 26ZM206.488 27.584L205.97 26.9744L205.946 26.9954L205.923 27.0183L206.488 27.584ZM204.64 28.76L204.333 28.0215L204.64 28.76ZM198.856 28.424L198.467 29.1228L198.472 29.1255L198.856 28.424ZM196.576 26.144L195.873 26.5247L195.878 26.5335L196.576 26.144ZM196.6 19.304L195.899 18.9201L195.896 18.9241L196.6 19.304ZM198.784 16.952L198.375 16.2649L198.369 16.2682L198.784 16.952ZM206.752 19.112L207.443 18.7074V18.7074L206.752 19.112ZM199.384 19.016L199.867 19.6542L199.877 19.6467L199.384 19.016ZM198.088 21.344L197.304 21.1894L197.115 22.144H198.088V21.344ZM205.168 21.344V22.144H205.968V21.344H205.168ZM205.168 21.152H205.968V21.1143L205.965 21.0769L205.168 21.152ZM204.016 19.064L203.513 19.6858L203.52 19.6915L204.016 19.064ZM206.794 22.1876C206.79 22.2556 206.77 22.3134 206.688 22.3898L207.777 23.5622C208.143 23.2226 208.363 22.7844 208.391 22.2764L206.794 22.1876ZM206.712 22.3686C206.638 22.4322 206.56 22.464 206.44 22.464V24.064C206.929 24.064 207.379 23.9038 207.753 23.5834L206.712 22.3686ZM206.44 22.464H197.992V24.064H206.44V22.464ZM197.196 23.3404C197.324 24.6785 197.839 25.807 198.772 26.6617L199.853 25.4823C199.249 24.929 198.884 24.1855 198.789 23.1876L197.196 23.3404ZM198.778 26.6672C199.719 27.5119 200.865 27.928 202.168 27.928V26.328C201.232 26.328 200.474 26.0401 199.847 25.4768L198.778 26.6672ZM202.168 27.928C203.005 27.928 203.756 27.8075 204.379 27.5169L203.702 26.0671C203.365 26.2245 202.868 26.328 202.168 26.328V27.928ZM204.379 27.5169C204.935 27.2575 205.432 26.9208 205.865 26.5061L204.759 25.3499C204.457 25.6392 204.106 25.8785 203.702 26.0671L204.379 27.5169ZM205.724 26.614C205.87 26.5261 205.962 26.512 206.008 26.512V24.912C205.607 24.912 205.234 25.0419 204.901 25.242L205.724 26.614ZM206.008 26.512C206.049 26.512 206.064 26.5187 206.065 26.5193C206.067 26.52 206.069 26.521 206.072 26.5232C206.075 26.5255 206.082 26.5306 206.091 26.5406L207.27 25.4594C206.935 25.094 206.493 24.912 206.008 24.912V26.512ZM206.115 26.5657C206.167 26.6178 206.168 26.642 206.168 26.672H207.768C207.768 26.19 207.578 25.7662 207.246 25.4343L206.115 26.5657ZM206.168 26.672C206.168 26.7164 206.16 26.8132 205.97 26.9744L207.007 28.1936C207.457 27.8108 207.768 27.2996 207.768 26.672H206.168ZM205.923 27.0183C205.55 27.3915 205.029 27.7314 204.333 28.0215L204.948 29.4985C205.788 29.1486 206.499 28.7045 207.054 28.1497L205.923 27.0183ZM204.333 28.0215C203.658 28.3026 202.979 28.44 202.288 28.44V30.04C203.198 30.04 204.087 29.8574 204.948 29.4985L204.333 28.0215ZM202.288 28.44C201.107 28.44 200.099 28.193 199.241 27.7225L198.472 29.1255C199.598 29.743 200.878 30.04 202.288 30.04V28.44ZM199.246 27.7252C198.4 27.2536 197.747 26.6007 197.275 25.7545L195.878 26.5335C196.494 27.6393 197.361 28.5064 198.467 29.1228L199.246 27.7252ZM197.28 25.7633C196.822 24.9167 196.584 23.946 196.584 22.832H194.984C194.984 24.182 195.275 25.4193 195.873 26.5247L197.28 25.7633ZM196.584 22.832C196.584 21.5976 196.834 20.5565 197.304 19.6839L195.896 18.9241C195.279 20.0675 194.984 21.3784 194.984 22.832H196.584ZM197.302 19.6878C197.803 18.773 198.437 18.0988 199.2 17.6358L198.369 16.2682C197.34 16.8932 196.518 17.787 195.899 18.9201L197.302 19.6878ZM199.194 17.6391C199.985 17.1673 200.82 16.936 201.712 16.936V15.336C200.525 15.336 199.408 15.6487 198.375 16.2649L199.194 17.6391ZM201.712 16.936C202.591 16.936 203.411 17.1606 204.186 17.6172L204.999 16.2388C203.982 15.6394 202.882 15.336 201.712 15.336V16.936ZM204.186 17.6172C204.961 18.0736 205.585 18.7019 206.062 19.5166L207.443 18.7074C206.832 17.6661 206.016 16.8384 204.999 16.2388L204.186 17.6172ZM206.062 19.5166C206.531 20.3167 206.778 21.2194 206.793 22.2431L208.392 22.2209C208.375 20.9406 208.062 19.7633 207.443 18.7074L206.062 19.5166ZM201.712 17.448C200.653 17.448 199.7 17.7549 198.892 18.3853L199.877 19.6467C200.381 19.2531 200.98 19.048 201.712 19.048V17.448ZM198.902 18.3779C198.046 19.0252 197.538 20.0014 197.304 21.1894L198.873 21.4986C199.055 20.5746 199.411 19.9988 199.867 19.6541L198.902 18.3779ZM198.088 22.144H205.168V20.544H198.088V22.144ZM205.968 21.344V21.152H204.368V21.344H205.968ZM205.965 21.0769C205.864 20.0043 205.366 19.1114 204.513 18.4365L203.52 19.6915C204.043 20.1046 204.313 20.6037 204.372 21.2271L205.965 21.0769ZM204.52 18.4422C203.705 17.783 202.76 17.448 201.712 17.448V19.048C202.393 19.048 202.983 19.257 203.513 19.6858L204.52 18.4422Z" fill="#2D4EFB"/>
</svg>
