<?xml version="1.0" encoding="utf-8"?>
<!-- Generator: Adobe Illustrator 24.2.3, SVG Export Plug-In . SVG Version: 6.00 Build 0)  -->
<svg version="1.1" id="Layer_1" xmlns="http://www.w3.org/2000/svg" xmlns:xlink="http://www.w3.org/1999/xlink" x="0px" y="0px"
	 viewBox="0 0 1200 400" style="enable-background:new 0 0 1200 400;" xml:space="preserve">
<style type="text/css">
	.st0{fill:#00BCBD;stroke:#00BCBD;stroke-miterlimit:10;}
	.st1{fill:#FF9ACA;stroke:#FF9ACA;stroke-miterlimit:10;}
	.st2{fill:#FF9ACA;}
	.st3{fill:#00BCBD;}
	.st4{fill:none;stroke:#FF9ACA;stroke-width:35;stroke-miterlimit:10;}
</style>
<g>
	<path class="st0" d="M270.23,343.7c-3.2,0-5.74-1.47-7.62-4.41c-1.88-2.95-3.29-6.31-4.23-10.11c-0.94-3.8-1.55-7.64-1.83-11.53
		c-0.28-3.89-0.42-6.88-0.42-8.97c0-5.7,0.33-11.39,0.99-17.09c0.66-5.7,1.41-11.39,2.26-17.09c0.85-5.7,1.6-11.39,2.26-17.09
		c0.66-5.7,0.99-11.39,0.99-17.09c0-2.28-0.1-4.74-0.28-7.41c-0.19-2.66-0.61-5.17-1.27-7.55c-0.66-2.37-1.74-4.32-3.24-5.84
		c-1.51-1.52-3.48-2.28-5.93-2.28c-1.69,0-3.58,1.38-5.64,4.13c-2.07,2.76-4,5.89-5.78,9.4c-1.79,3.51-3.29,7.03-4.51,10.54
		c-1.23,3.52-1.83,6.12-1.83,7.83c0,4.18,0.04,8.4,0.14,12.67c0.09,4.27,0.14,8.59,0.14,12.96v16.52
		c-0.19,3.42-0.47,6.93-0.85,10.54c-0.38,3.61-0.94,7.12-1.69,10.54c-0.56,3.42-1.41,6.69-2.54,9.83c-1.13,3.13-2.59,5.89-4.37,8.26
		c-1.79,2.38-3.91,4.32-6.35,5.84c-2.45,1.52-5.36,2.28-8.75,2.28c-3.77,0-6.87-1.24-9.31-3.7c-2.45-2.46-4.42-5.65-5.93-9.54
		c-1.51-3.89-2.59-8.26-3.24-13.1c-0.66-4.84-1.13-9.59-1.41-14.24c-0.28-4.65-0.38-8.92-0.28-12.82c0.09-3.89,0.14-6.98,0.14-9.26
		v-13.38c0-7.21-0.14-14.33-0.42-21.36c-0.28-7.02-0.42-14.05-0.42-21.08c0-3.8,0.04-8.64,0.14-14.52
		c0.09-5.88,0.8-11.63,2.12-17.23c1.31-5.6,3.48-10.4,6.49-14.38c3.01-3.99,7.43-5.98,13.26-5.98c2.63,0,4.98,0.85,7.05,2.56
		c2.07,1.71,3.9,3.8,5.5,6.27c1.6,2.47,2.91,5.13,3.95,7.97c1.03,2.85,1.83,5.32,2.4,7.41c1.88-2.66,4.09-5.22,6.63-7.69
		c2.54-2.46,5.41-4.65,8.61-6.55c3.2-1.9,6.77-3.42,10.72-4.56c3.95-1.14,8.46-1.71,13.54-1.71c9.59,0,17.07,2.33,22.43,6.98
		c5.36,4.65,9.31,10.44,11.85,17.37c2.54,6.93,4.09,14.38,4.66,22.36c0.56,7.97,0.85,15.19,0.85,21.64c0,3.23-0.28,8.02-0.85,14.38
		c-0.56,6.36-1.46,13.38-2.68,21.08c-1.23,7.69-2.87,15.57-4.94,23.64c-2.07,8.07-4.51,15.43-7.34,22.07
		c-2.82,6.65-6.16,12.06-10.02,16.23C279.49,341.6,275.11,343.7,270.23,343.7z"/>
	<path class="st0" d="M390.71,345.97c-13.36,0-23.75-1.76-31.18-5.27c-7.43-3.51-12.98-8.49-16.65-14.95
		c-3.67-6.45-5.88-14.24-6.63-23.36c-0.75-9.11-1.13-19.27-1.13-30.47c0-8.92,0.28-17.89,0.85-26.92
		c0.56-9.02,1.41-18.65,2.54-28.91c-2.64,0-4.7,0.05-6.21,0.14c-1.51,0.1-2.73,0.14-3.67,0.14c-6.02,0-11.24-1.33-15.66-3.99
		c-4.42-2.66-6.63-6.74-6.63-12.25c0-3.42,1.27-6.45,3.81-9.11c2.54-2.66,5.78-4.94,9.73-6.84c3.95-1.9,8.23-3.42,12.84-4.56
		c4.61-1.14,8.98-1.9,13.12-2.28c0-5.31,0.37-11.2,1.13-17.66c0.75-6.45,2.12-12.48,4.09-18.09c1.98-5.6,4.66-10.3,8.04-14.1
		c3.39-3.8,7.71-5.7,12.98-5.7c3.01,0,5.69,0.9,8.04,2.71c2.35,1.81,4.28,4.09,5.78,6.84c1.5,2.75,2.63,5.84,3.39,9.26
		c0.75,3.42,1.13,6.74,1.13,9.97c0,3.8-0.28,7.69-0.85,11.68c-0.56,3.99-1.6,8.93-3.1,14.81c3.2-0.38,5.36-0.61,6.49-0.71
		c1.13-0.09,2.16-0.14,3.1-0.14c3.2,0,6.53,0.28,10.02,0.85c3.48,0.57,6.67,1.52,9.59,2.85c2.91,1.33,5.31,3.09,7.19,5.27
		c1.88,2.19,2.82,4.8,2.82,7.83c0,3.42-1.37,6.46-4.09,9.11c-2.73,2.66-6.16,4.94-10.3,6.84c-4.14,1.9-8.56,3.37-13.26,4.41
		c-4.7,1.05-9.13,1.76-13.26,2.14c-1.13,7.79-1.93,14.95-2.4,21.5c-0.47,6.55-0.99,13.15-1.55,19.79c-0.38,3.23-0.71,6.51-0.99,9.83
		c-0.28,3.32-0.42,6.69-0.42,10.11c0,2.47,0.09,5.37,0.28,8.69c0.19,3.32,0.85,6.51,1.98,9.54c1.13,3.04,2.91,5.65,5.36,7.83
		c2.44,2.18,5.83,3.27,10.16,3.27c2.63,0,5.36-0.24,8.18-0.71c2.82-0.47,5.64-0.71,8.46-0.71c4.89,0,8.42,1.71,10.58,5.13
		c2.16,3.42,3.25,7.79,3.25,13.1c0,3.99-1.18,7.45-3.53,10.4c-2.35,2.94-5.32,5.31-8.89,7.12c-3.58,1.8-7.57,3.18-11.99,4.13
		C398.84,345.5,394.66,345.97,390.71,345.97z"/>
	<path class="st0" d="M551.53,285.03c0,6.46-2.02,12.77-6.07,18.94c-4.05,6.17-9.13,11.68-15.24,16.52
		c-6.11,4.84-12.65,8.74-19.61,11.68c-6.96,2.95-13.36,4.41-19.19,4.41c-9.97,0-18.86-2.52-26.66-7.55
		c-7.81-5.03-14.35-11.44-19.61-19.22c-5.27-7.78-9.27-16.38-11.99-25.78c-2.73-9.4-4.09-18.56-4.09-27.48
		c0-9.49,1.31-19.65,3.95-30.48c2.63-10.82,6.63-20.79,11.99-29.9c5.36-9.11,12.13-16.71,20.32-22.79
		c8.18-6.07,17.92-9.11,29.2-9.11c6.39,0,12.51,1.09,18.34,3.28c5.83,2.19,10.91,5.27,15.24,9.26c4.33,3.99,7.8,8.74,10.44,14.24
		c2.63,5.51,3.95,11.68,3.95,18.51c0,8.93-1.88,17.28-5.64,25.06c-3.76,7.79-8.75,14.53-14.95,20.22
		c-6.21,5.7-13.36,10.3-21.44,13.81c-8.09,3.52-16.37,5.46-24.83,5.84c0.75,5.51,2.96,9.5,6.63,11.96c3.67,2.47,8.04,3.7,13.12,3.7
		c3.76,0,7.43-0.95,11-2.85c3.57-1.9,7.05-4.03,10.44-6.41c3.39-2.37,6.72-4.51,10.02-6.41c3.29-1.9,6.63-2.85,10.02-2.85
		c3.76,0,7.15,1.24,10.16,3.7C550.03,277.81,551.53,281.04,551.53,285.03z M505.82,215.25c0-2.47-0.66-5.03-1.97-7.69
		c-1.32-2.66-3.39-3.99-6.21-3.99c-4.14,0-7.62,1.09-10.44,3.28c-2.82,2.19-5.18,4.94-7.05,8.26c-1.88,3.32-3.34,6.88-4.37,10.68
		c-1.04,3.8-1.65,7.31-1.83,10.54c2.63-0.57,5.78-1.33,9.45-2.28c3.67-0.95,7.15-2.23,10.44-3.85c3.29-1.61,6.11-3.65,8.46-6.12
		C504.65,221.61,505.82,218.66,505.82,215.25z"/>
	<path class="st0" d="M615.58,163.13c0,10.25-0.42,20.56-1.27,30.9c-0.85,10.35-1.27,20.75-1.27,31.19
		c0,13.48,0.42,26.96,1.27,40.44c0.85,13.48,1.27,27.06,1.27,40.73c0,3.42-0.19,7.26-0.56,11.53c-0.38,4.27-1.27,8.21-2.68,11.82
		c-1.41,3.61-3.53,6.64-6.35,9.11c-2.82,2.46-6.59,3.7-11.29,3.7c-4.51,0-8.42-2.23-11.71-6.69c-3.29-4.46-6.02-10.16-8.18-17.09
		c-2.16-6.93-3.95-14.67-5.36-23.21c-1.41-8.55-2.45-16.85-3.1-24.92c-0.66-8.07-1.13-15.47-1.41-22.21
		c-0.28-6.74-0.42-11.72-0.42-14.95c0-3.6,0.14-8.83,0.42-15.66c0.28-6.84,0.89-14.24,1.83-22.21c0.94-7.97,2.21-16.09,3.81-24.35
		c1.6-8.26,3.71-15.76,6.35-22.5c2.63-6.74,5.78-12.25,9.45-16.52c3.67-4.27,8.04-6.41,13.12-6.41c4.14,0,7.29,1.38,9.45,4.13
		c2.16,2.75,3.71,6.08,4.66,9.97c0.94,3.89,1.5,7.98,1.69,12.25C615.49,156.43,615.58,160.09,615.58,163.13z"/>
	<path class="st0" d="M689.79,163.13c0,10.25-0.42,20.56-1.27,30.9c-0.85,10.35-1.27,20.75-1.27,31.19
		c0,13.48,0.42,26.96,1.27,40.44c0.85,13.48,1.27,27.06,1.27,40.73c0,3.42-0.19,7.26-0.56,11.53c-0.38,4.27-1.27,8.21-2.68,11.82
		c-1.41,3.61-3.53,6.64-6.35,9.11c-2.82,2.46-6.59,3.7-11.29,3.7c-4.51,0-8.42-2.23-11.71-6.69c-3.29-4.46-6.02-10.16-8.18-17.09
		c-2.16-6.93-3.95-14.67-5.36-23.21c-1.41-8.55-2.45-16.85-3.1-24.92c-0.66-8.07-1.13-15.47-1.41-22.21
		c-0.28-6.74-0.42-11.72-0.42-14.95c0-3.6,0.14-8.83,0.42-15.66c0.28-6.84,0.89-14.24,1.83-22.21c0.94-7.97,2.21-16.09,3.81-24.35
		c1.6-8.26,3.71-15.76,6.35-22.5c2.63-6.74,5.78-12.25,9.45-16.52c3.67-4.27,8.04-6.41,13.12-6.41c4.13,0,7.29,1.38,9.45,4.13
		c2.16,2.75,3.71,6.08,4.65,9.97c0.94,3.89,1.5,7.98,1.69,12.25C689.69,156.43,689.79,160.09,689.79,163.13z"/>
</g>
<g>
	<path class="st1" d="M832.79,285.25c0,6.63-2.08,13.12-6.23,19.45c-4.15,6.34-9.37,11.99-15.64,16.96
		c-6.28,4.97-12.99,8.97-20.12,11.99c-7.14,3.02-13.71,4.53-19.69,4.53c-10.23,0-19.36-2.58-27.36-7.75
		c-8.01-5.16-14.72-11.74-20.12-19.74c-5.41-7.99-9.51-16.82-12.31-26.47c-2.8-9.65-4.2-19.06-4.2-28.22
		c0-9.75,1.35-20.18,4.05-31.29c2.7-11.11,6.8-21.35,12.31-30.71c5.5-9.36,12.45-17.15,20.85-23.4c8.4-6.24,18.39-9.36,29.97-9.36
		c6.56,0,12.84,1.12,18.82,3.36c5.98,2.24,11.19,5.41,15.64,9.5c4.44,4.09,8.01,8.97,10.71,14.62c2.7,5.66,4.05,11.99,4.05,19.01
		c0,9.17-1.93,17.74-5.79,25.74c-3.86,8-8.98,14.91-15.35,20.76c-6.37,5.85-13.71,10.58-22.01,14.18c-8.3,3.61-16.79,5.61-25.48,6
		c0.77,5.66,3.04,9.75,6.8,12.28c3.76,2.54,8.25,3.8,13.46,3.8c3.86,0,7.62-0.97,11.29-2.92c3.67-1.95,7.24-4.14,10.71-6.58
		c3.48-2.44,6.9-4.63,10.28-6.58c3.38-1.95,6.8-2.93,10.28-2.93c3.86,0,7.33,1.27,10.42,3.8
		C831.24,277.84,832.79,281.15,832.79,285.25z M785.88,213.6c0-2.53-0.68-5.16-2.03-7.9c-1.35-2.73-3.48-4.09-6.37-4.09
		c-4.25,0-7.82,1.12-10.71,3.36c-2.9,2.24-5.31,5.07-7.24,8.48c-1.93,3.41-3.43,7.07-4.49,10.97c-1.06,3.9-1.69,7.51-1.88,10.82
		c2.7-0.58,5.94-1.36,9.7-2.34c3.76-0.97,7.33-2.29,10.71-3.95c3.37-1.65,6.27-3.75,8.69-6.29
		C784.67,220.13,785.88,217.11,785.88,213.6z"/>
</g>
<g>
	<path class="st2" d="M868.58,331.89l32.9-21.06c0,0-28.95-63.17-27.64-80.28c0,0,0-14.48,10.53-9.21c0,0,3.95,0,32.9,27.64
		c0,0,18.42-21.06,31.58-27.64c0,0,10.53-6.58,13.16,5.26c0,0,3.95,34.22-28.95,81.59l34.22,23.69c0,0,40.8-65.8,32.9-115.81
		c0,0-1.32-23.69-35.53-32.9c0,0-27.64-6.58-47.38,11.84c0,0-34.22-30.27-68.43-2.63C848.84,192.39,810.68,221.35,868.58,331.89z"/>
	<path class="st2" d="M868.33,332.83L868,332.2c-29.99-57.25-33.77-92.28-31.65-111.58c2.31-21.09,11.7-28.44,12.1-28.75
		c32.1-25.93,64.59-1.16,68.81,2.28c19.74-17.97,47.27-11.68,47.55-11.61c34.3,9.23,36.02,33.26,36.04,33.5
		c7.84,49.61-32.59,115.53-33,116.19l-0.36,0.59l-35.33-24.46l0.38-0.54c32.36-46.59,28.88-80.8,28.84-81.14
		c-0.71-3.16-2.09-5.22-4.09-6.06c-3.56-1.49-8.02,1.25-8.06,1.28c-12.95,6.48-31.25,27.3-31.44,27.51l-0.45,0.52l-0.5-0.48
		c-27.58-26.32-32.33-27.42-32.51-27.46l-0.22-0.06c-2.52-1.26-4.57-1.42-6.1-0.47c-3.43,2.12-3.47,9.03-3.47,9.1
		c-1.29,16.79,27.29,79.37,27.58,80l0.24,0.52L868.33,332.83z M933.98,308.03l33.1,22.92c4.01-6.68,39.82-68.08,32.45-114.77
		c-0.02-0.3-1.74-23.4-35.05-32.37c-0.25-0.06-27.51-6.27-46.76,11.69l-0.44,0.41l-0.45-0.4c-0.34-0.3-34.21-29.57-67.58-2.61
		c-0.11,0.08-9.42,7.42-11.62,28.04c-2.04,19.04,1.74,53.56,31.2,110l31.81-20.36c-2.96-6.51-28.72-63.63-27.46-80.08
		c0-0.26,0.04-7.66,4.09-10.16c1.93-1.19,4.39-1.07,7.32,0.38c1.2,0.31,7.25,3.12,32.63,27.31c2.98-3.35,19.2-21.21,31.33-27.28
		c0.15-0.1,5.03-3.1,9.22-1.35c2.42,1.02,4.07,3.39,4.88,7.06C962.71,226.88,966.24,261.28,933.98,308.03z"/>
</g>
<g>
	<path class="st3" d="M74.37,141.07c0,0,6.58,1.15,6.58,6.91c0,5.76-6.58,6.91-6.58,6.91H48.05c0,0-7.9,0-7.9-6.91
		c0-6.91,5.26-6.91,5.26-6.91H74.37z"/>
	<path class="st3" d="M48.05,155.55c-2.96,0-8.55-1.58-8.55-7.57c0-7.48,5.86-7.57,5.92-7.57l29.07,0.01
		c0.07,0.01,7.12,1.32,7.12,7.56c0,6.24-7.05,7.54-7.12,7.56L48.05,155.55z M45.42,141.73c-0.19,0-4.61,0.11-4.61,6.25
		c0,6.18,6.94,6.25,7.24,6.25h26.32c0.13-0.03,5.92-1.12,5.92-6.25c0-4.89-5.4-6.13-5.98-6.25H45.42z"/>
</g>
<g>
	<path class="st3" d="M99.59,90.26c0,0,3.78,5.51-0.33,9.54c-4.11,4.03-9.54,0.14-9.54,0.14L71.3,81.13c0,0-5.53-5.64-0.59-10.48
		c4.93-4.84,8.62-1.08,8.62-1.08L99.59,90.26z"/>
	<path class="st3" d="M94.89,102.27c-2.99,0-5.52-1.78-5.56-1.8L70.83,81.59c-0.06-0.06-1.49-1.53-2.29-3.65
		c-1.1-2.9-0.51-5.58,1.71-7.75c2.76-2.7,5.2-2.86,6.76-2.52c1.71,0.37,2.75,1.41,2.79,1.46l20.34,20.77
		c0.04,0.06,4.04,6.01-0.41,10.38C98.18,101.78,96.47,102.27,94.89,102.27z M75.8,68.85c-1.26,0-2.85,0.53-4.63,2.28
		c-4.4,4.31,0.39,9.33,0.6,9.55l18.42,18.8c0.12,0.07,4.95,3.44,8.61-0.14c3.52-3.45,0.63-8.11,0.28-8.65L78.85,70.04
		C78.78,69.97,77.63,68.85,75.8,68.85z"/>
</g>
<g>
	<path class="st3" d="M154.18,74.05c0,0-1.14,6.58-6.89,6.59s-6.92-6.57-6.92-6.57l-0.06-26.32c0,0-0.02-7.9,6.89-7.91
		c6.91-0.01,6.92,5.25,6.92,5.25L154.18,74.05z"/>
	<path class="st3" d="M147.27,81.3c-6.22,0-7.54-7.04-7.55-7.11l-0.07-26.43c-0.01-2.96,1.56-8.56,7.55-8.57c0.01,0,0.02,0,0.03,0
		c7.45,0,7.55,5.85,7.55,5.91l0.06,29.01l-0.01,0.06c-0.01,0.07-1.3,7.13-7.54,7.14C147.28,81.3,147.28,81.3,147.27,81.3z
		 M147.23,40.51c-0.01,0-0.02,0-0.03,0c-6.18,0.01-6.24,6.96-6.24,7.25l0.06,26.32c0.03,0.13,1.14,5.91,6.25,5.91
		c0.01,0,0.01,0,0.01,0c4.93-0.01,6.11-5.36,6.24-6l-0.06-28.89C153.46,44.92,153.34,40.51,147.23,40.51z"/>
</g>
<g>
	<path class="st3" d="M202.29,102.07c0,0-5.52,3.76-9.53-0.36c-4.02-4.13-0.1-9.54-0.1-9.54l18.86-18.36c0,0,5.66-5.51,10.48-0.56
		c4.82,4.95,1.05,8.62,1.05,8.62L202.29,102.07z"/>
	<path class="st3" d="M197.24,104.29c-1.63,0-3.4-0.52-4.96-2.12c-4.35-4.47-0.21-10.33-0.17-10.38l18.93-18.45
		c2.12-2.06,7.23-4.83,11.41-0.54c2.69,2.77,2.85,5.21,2.5,6.77c-0.38,1.71-1.42,2.74-1.47,2.78l-20.83,20.27
		C202.62,102.64,200.15,104.29,197.24,104.29z M217.42,71.85c-2.89,0-5.31,2.29-5.45,2.44l-18.86,18.36
		c-0.07,0.12-3.46,4.94,0.12,8.61c3.41,3.5,8.15,0.63,8.65,0.3l20.7-20.15c0.13-0.13,3.22-3.29-1.06-7.69
		C220.16,72.33,218.74,71.85,217.42,71.85z"/>
</g>
<g>
	<path class="st3" d="M218.15,153.96c0,0-6.57-1.18-6.55-6.94c0.03-5.76,6.61-6.88,6.61-6.88l26.32,0.13c0,0,7.9,0.04,7.86,6.95
		c-0.03,6.91-5.3,6.88-5.3,6.88L218.15,153.96z"/>
	<path class="st3" d="M247.1,154.76C247.1,154.76,247.1,154.76,247.1,154.76l-29.07-0.15c-0.07-0.01-7.12-1.35-7.09-7.59
		c0.03-6.24,7.09-7.51,7.16-7.52l26.43,0.12c2.96,0.01,8.55,1.62,8.52,7.61C253.03,154.68,247.19,154.76,247.1,154.76z
		 M218.22,153.3l28.89,0.14c0.19,0,4.61-0.09,4.64-6.23c0.03-6.18-6.91-6.29-7.21-6.29l-26.32-0.13c-0.13,0.03-5.93,1.1-5.95,6.22
		C212.24,151.91,217.64,153.18,218.22,153.3z"/>
</g>
<path class="st3" d="M114.51,183.18c0,0,9.87,14.57,11.52,38.87c0,0-5.54,47.51-0.3,79.66c0,0,4.74,33.47,19.46,37.42
	s21.14-28.08,21.88-35.76s8.12-62.25,3.77-81.02c0,0-3.41-15.54,4.68-32.29c0,0,21.85-20.32,18.26-53.41c0,0-8.77-36.89-46.32-36.97
	s-50.93,32.59-47.53,53.11l19.19,11.3c0,0-15.36-14.17,0.88-38.01s42.55-5.42,42.55-5.42s-47.38-2.63-40.8,52.64l-21.22-19.01
	C100.53,154.3,105.96,173.31,114.51,183.18z"/>
<path class="st3" d="M115.32,159.43c0,0,1.83,4.01,4.46,5.32c0,0,0.96-16.07,6.4-24.48s10.7,54.75,10.7,54.75l-25-26.32
	l-11.84-14.48l0.8-7.02L115.32,159.43z"/>
<path class="st3" d="M179,185.81c0,0-7.9,9.21-7.9,36.85s-7.9-10.53-7.9-10.53l2.63-21.06L179,185.81z"/>
<circle class="st4" cx="1094.94" cy="256.88" r="71.06"/>
<path class="st2" d="M1055.46,263.83c0,0,20.88,13.68,39.6,12.24s36.72-12.24,36.72-12.24s-8.64,31.68-38.16,30.24
	S1055.46,263.83,1055.46,263.83z"/>
</svg>
