<?xml version="1.0" encoding="utf-8"?>
<!-- Generator: Adobe Illustrator 15.0.0, SVG Export Plug-In . SVG Version: 6.00 Build 0)  -->
<!DOCTYPE svg PUBLIC "-//W3C//DTD SVG 1.1//EN" "http://www.w3.org/Graphics/SVG/1.1/DTD/svg11.dtd">
<svg version="1.1" id="Layer_1" xmlns="http://www.w3.org/2000/svg" xmlns:xlink="http://www.w3.org/1999/xlink" x="0px" y="0px"
	 width="177.627px" height="23.335px" viewBox="0 0 177.627 23.335" enable-background="new 0 0 177.627 23.335"
	 xml:space="preserve">
<g>
	<path d="M13.07,19.45c-0.32,0.655-0.768,1.214-1.344,1.672c-0.575,0.455-1.257,0.802-2.053,1.041
		c-0.793,0.233-1.666,0.354-2.612,0.354c-1.369,0-2.561-0.178-3.575-0.533c-1.013-0.354-1.953-0.975-2.814-1.853l1.826-1.801
		c0.659,0.66,1.36,1.11,2.104,1.356c0.745,0.246,1.581,0.369,2.512,0.369c1.182,0,2.1-0.244,2.75-0.726
		c0.649-0.483,0.976-1.163,0.976-2.043c0-0.828-0.237-1.451-0.709-1.874c-0.237-0.225-0.491-0.382-0.761-0.482
		c-0.271-0.104-0.677-0.191-1.217-0.274l-2.13-0.308c-1.471-0.203-2.611-0.685-3.423-1.442c-0.881-0.829-1.32-1.979-1.32-3.449
		c0-0.778,0.14-1.492,0.419-2.144C1.976,6.666,2.375,6.103,2.89,5.63c0.516-0.472,1.146-0.836,1.889-1.089
		c0.744-0.253,1.59-0.38,2.536-0.38c1.2,0,2.238,0.159,3.12,0.48c0.877,0.32,1.706,0.846,2.484,1.571L11.17,7.939
		c-0.558-0.541-1.163-0.909-1.813-1.104C8.704,6.642,7.999,6.543,7.239,6.543c-1.064,0-1.879,0.267-2.446,0.799
		c-0.567,0.533-0.85,1.204-0.85,2.016c0,0.339,0.054,0.646,0.164,0.927c0.109,0.278,0.283,0.527,0.521,0.746
		c0.473,0.425,1.149,0.703,2.027,0.838l2.055,0.304c0.844,0.138,1.52,0.312,2.027,0.521c0.506,0.213,0.956,0.486,1.343,0.824
		c0.489,0.439,0.858,0.973,1.104,1.597c0.244,0.628,0.366,1.325,0.366,2.104C13.551,18.045,13.391,18.791,13.07,19.45z"/>
	<path d="M29.524,15.684c-0.017,0.7-0.075,1.34-0.177,1.916c-0.101,0.574-0.271,1.104-0.507,1.596
		c-0.236,0.49-0.575,0.957-1.013,1.396c-0.625,0.626-1.336,1.104-2.129,1.436c-0.795,0.328-1.673,0.49-2.636,0.49
		s-1.84-0.162-2.624-0.49c-0.787-0.33-1.492-0.81-2.118-1.436c-0.439-0.438-0.776-0.902-1.013-1.396
		c-0.236-0.488-0.409-1.021-0.52-1.596c-0.108-0.576-0.173-1.216-0.19-1.916c-0.017-0.701-0.024-1.481-0.024-2.347
		c0-0.86,0.008-1.646,0.024-2.345c0.015-0.702,0.078-1.341,0.187-1.914c0.111-0.575,0.283-1.105,0.521-1.598
		c0.236-0.49,0.575-0.956,1.014-1.396c0.625-0.625,1.332-1.104,2.116-1.434c0.787-0.328,1.662-0.492,2.625-0.492
		c0.962,0,1.841,0.164,2.636,0.492c0.793,0.33,1.505,0.81,2.129,1.434c0.439,0.438,0.777,0.904,1.013,1.396
		c0.235,0.489,0.405,1.021,0.507,1.598c0.103,0.575,0.161,1.213,0.176,1.914c0.019,0.699,0.027,1.482,0.027,2.345
		C29.551,14.2,29.541,14.98,29.524,15.684z M26.773,11.069c-0.025-0.602-0.077-1.104-0.152-1.521
		c-0.077-0.414-0.187-0.762-0.329-1.04c-0.146-0.278-0.325-0.536-0.546-0.772c-0.321-0.338-0.713-0.607-1.179-0.812
		c-0.465-0.202-0.968-0.306-1.508-0.306c-0.542,0-1.043,0.104-1.51,0.306c-0.465,0.203-0.859,0.474-1.179,0.812
		c-0.22,0.237-0.402,0.494-0.544,0.772c-0.146,0.278-0.254,0.625-0.33,1.04c-0.077,0.415-0.127,0.92-0.152,1.521
		c-0.024,0.602-0.039,1.356-0.039,2.27s0.015,1.671,0.039,2.271c0.025,0.601,0.075,1.105,0.152,1.521
		c0.076,0.416,0.186,0.762,0.33,1.041c0.143,0.279,0.324,0.536,0.544,0.771c0.32,0.341,0.713,0.609,1.179,0.813
		c0.466,0.202,0.968,0.307,1.51,0.307c0.54,0,1.043-0.104,1.508-0.307c0.466-0.201,0.858-0.473,1.179-0.813
		c0.22-0.234,0.402-0.491,0.546-0.771c0.142-0.277,0.251-0.625,0.329-1.041c0.076-0.413,0.127-0.921,0.152-1.521
		c0.023-0.601,0.038-1.354,0.038-2.271C26.811,12.425,26.799,11.67,26.773,11.069z"/>
	<path d="M45.078,19.348c-0.38,0.69-0.853,1.273-1.421,1.748c-0.565,0.475-1.208,0.827-1.927,1.063
		c-0.718,0.233-1.484,0.354-2.294,0.354c-0.947,0-1.816-0.164-2.612-0.494c-0.795-0.328-1.504-0.81-2.129-1.433
		c-0.439-0.438-0.778-0.903-1.013-1.396c-0.235-0.486-0.409-1.021-0.52-1.598c-0.11-0.574-0.174-1.215-0.191-1.914
		c-0.018-0.703-0.025-1.48-0.025-2.347c0-0.86,0.009-1.644,0.025-2.345c0.017-0.701,0.081-1.34,0.191-1.914
		c0.11-0.575,0.283-1.106,0.52-1.599c0.237-0.49,0.576-0.957,1.014-1.396c0.625-0.625,1.335-1.104,2.129-1.434
		c0.795-0.328,1.666-0.492,2.613-0.492c1.673,0,3.084,0.473,4.234,1.419c1.15,0.945,1.885,2.323,2.206,4.132H43.09
		c-0.221-0.913-0.63-1.656-1.23-2.23c-0.6-0.575-1.407-0.861-2.42-0.861c-0.541,0-1.041,0.098-1.496,0.292
		c-0.455,0.193-0.846,0.461-1.167,0.799c-0.22,0.235-0.403,0.493-0.544,0.772c-0.145,0.277-0.254,0.625-0.33,1.039
		c-0.075,0.415-0.13,0.924-0.166,1.533c-0.033,0.608-0.051,1.368-0.051,2.281c0,0.914,0.018,1.675,0.051,2.28
		c0.034,0.609,0.09,1.119,0.166,1.533c0.077,0.416,0.187,0.762,0.33,1.039c0.142,0.28,0.325,0.537,0.544,0.774
		c0.32,0.336,0.71,0.604,1.167,0.798c0.457,0.194,0.956,0.291,1.496,0.291c1.014,0,1.825-0.287,2.435-0.859
		c0.609-0.574,1.022-1.318,1.242-2.231h2.764C45.725,17.861,45.458,18.654,45.078,19.348z"/>
	<path d="M49.527,22.365V4.312h2.74v18.053H49.527z"/>
	<path d="M69.277,15.684c-0.017,0.7-0.076,1.34-0.176,1.916c-0.103,0.574-0.271,1.104-0.508,1.596
		c-0.235,0.49-0.574,0.957-1.015,1.396c-0.624,0.626-1.336,1.104-2.129,1.436c-0.794,0.328-1.672,0.49-2.637,0.49
		c-0.962,0-1.837-0.162-2.623-0.49c-0.787-0.33-1.493-0.81-2.118-1.436c-0.439-0.438-0.777-0.902-1.013-1.396
		c-0.236-0.488-0.41-1.021-0.521-1.596c-0.11-0.576-0.175-1.216-0.19-1.916c-0.018-0.701-0.024-1.481-0.024-2.347
		c0-0.86,0.008-1.646,0.024-2.345c0.015-0.702,0.08-1.341,0.191-1.914c0.109-0.575,0.283-1.105,0.52-1.598
		c0.235-0.49,0.574-0.956,1.014-1.396c0.625-0.625,1.33-1.104,2.117-1.434c0.785-0.328,1.66-0.492,2.623-0.492
		s1.843,0.164,2.637,0.492c0.793,0.33,1.506,0.81,2.129,1.434c0.441,0.438,0.779,0.904,1.015,1.396
		c0.236,0.489,0.406,1.021,0.509,1.598c0.099,0.573,0.159,1.212,0.175,1.914c0.018,0.699,0.026,1.482,0.026,2.345
		C69.302,14.2,69.294,14.98,69.277,15.684z M66.528,11.069c-0.026-0.602-0.077-1.104-0.153-1.521
		c-0.076-0.414-0.187-0.762-0.33-1.04c-0.144-0.278-0.323-0.536-0.543-0.772c-0.321-0.338-0.714-0.607-1.179-0.812
		c-0.465-0.202-0.969-0.306-1.51-0.306s-1.043,0.104-1.509,0.306c-0.465,0.203-0.858,0.474-1.179,0.812
		c-0.219,0.237-0.401,0.494-0.544,0.772c-0.144,0.278-0.251,0.625-0.329,1.04c-0.076,0.415-0.127,0.92-0.151,1.521
		c-0.023,0.602-0.037,1.356-0.037,2.27s0.014,1.671,0.037,2.271c0.024,0.601,0.075,1.105,0.151,1.521
		c0.077,0.416,0.187,0.762,0.329,1.041c0.144,0.279,0.325,0.536,0.544,0.771c0.321,0.341,0.714,0.609,1.179,0.813
		c0.465,0.202,0.967,0.307,1.509,0.307s1.043-0.104,1.51-0.307c0.465-0.201,0.856-0.473,1.179-0.813
		c0.22-0.234,0.401-0.491,0.543-0.771c0.144-0.277,0.254-0.625,0.33-1.041c0.077-0.413,0.128-0.921,0.153-1.521
		c0.023-0.601,0.037-1.354,0.037-2.271C66.565,12.425,66.552,11.67,66.528,11.069z"/>
	<g>
		<g>
			<path fill="#50B748" d="M84.834,19.348c-0.382,0.69-0.854,1.273-1.422,1.748c-0.567,0.475-1.21,0.827-1.929,1.063
				c-0.717,0.233-1.481,0.354-2.292,0.354c-0.948,0-1.819-0.164-2.612-0.494c-0.794-0.328-1.505-0.81-2.129-1.433
				c-0.44-0.438-0.777-0.903-1.015-1.396c-0.235-0.486-0.41-1.021-0.519-1.598c-0.11-0.574-0.174-1.215-0.19-1.914
				c-0.018-0.703-0.024-1.48-0.024-2.347c0-0.86,0.008-1.644,0.024-2.345c0.018-0.703,0.081-1.342,0.191-1.915
				c0.108-0.575,0.283-1.105,0.519-1.598c0.235-0.49,0.575-0.956,1.015-1.396c0.624-0.625,1.335-1.104,2.129-1.434
				c0.793-0.328,1.664-0.492,2.612-0.492c1.674,0,3.085,0.473,4.235,1.419c1.149,0.945,1.884,2.323,2.205,4.132h-2.788
				c-0.22-0.913-0.629-1.656-1.229-2.23c-0.6-0.575-1.408-0.861-2.421-0.861c-0.542,0-1.04,0.098-1.498,0.292
				c-0.455,0.193-0.845,0.461-1.166,0.799c-0.221,0.235-0.402,0.493-0.546,0.772c-0.144,0.277-0.253,0.625-0.329,1.039
				c-0.076,0.415-0.132,0.924-0.166,1.533c-0.035,0.608-0.052,1.368-0.052,2.281c0,0.914,0.017,1.675,0.052,2.28
				c0.033,0.609,0.089,1.119,0.166,1.533c0.076,0.416,0.187,0.762,0.329,1.039c0.144,0.28,0.325,0.537,0.546,0.774
				c0.32,0.336,0.709,0.604,1.166,0.798c0.458,0.193,0.956,0.291,1.498,0.291c1.012,0,1.825-0.287,2.433-0.859
				c0.61-0.574,1.022-1.318,1.242-2.231h2.765C85.478,17.861,85.213,18.654,84.834,19.348z"/>
		</g>
	</g>
	<g>
		<g>
			<path fill="#50B748" d="M99.346,22.365v-7.887h-7.328v7.887h-2.736V4.312h2.736v7.708h7.328V4.312h2.738v18.053H99.346z"/>
		</g>
	</g>
	<g>
		<g>
			<path fill="#50B748" d="M117.168,22.365l-1.239-3.627h-7.126l-1.241,3.627h-2.917l6.618-18.053h2.208l6.617,18.053H117.168z
				 M112.428,8.419l-2.813,8.013h5.551L112.428,8.419z"/>
		</g>
	</g>
	<g>
		<g>
			<path fill="#50B748" d="M132.61,22.365l-3.804-7.608h-3.423v7.608h-2.739V4.312h6.997c0.863,0,1.638,0.131,2.32,0.395
				c0.686,0.264,1.271,0.625,1.765,1.09c0.487,0.466,0.864,1.021,1.126,1.674c0.264,0.65,0.395,1.356,0.395,2.116
				c0,1.302-0.347,2.354-1.041,3.157c-0.691,0.804-1.547,1.349-2.562,1.636l4.157,7.986L132.61,22.365L132.61,22.365z
				 M131.659,7.523c-0.566-0.5-1.306-0.75-2.219-0.75h-4.057v5.681h4.057c0.915,0,1.65-0.247,2.219-0.739
				c0.566-0.492,0.85-1.188,0.85-2.089S132.226,8.024,131.659,7.523z"/>
		</g>
	</g>
	<g>
		<g>
			<path fill="#50B748" d="M151.308,18.316c-0.246,0.791-0.663,1.512-1.255,2.148c-0.695,0.725-1.456,1.248-2.281,1.568
				c-0.829,0.318-1.727,0.479-2.688,0.479c-0.945,0-1.814-0.162-2.61-0.49c-0.795-0.33-1.507-0.81-2.132-1.436
				c-0.439-0.438-0.777-0.902-1.014-1.396c-0.236-0.488-0.408-1.021-0.521-1.597c-0.107-0.575-0.178-1.215-0.189-1.916
				c-0.019-0.7-0.025-1.481-0.025-2.346c0-0.86,0.012-1.646,0.025-2.345c0.018-0.701,0.078-1.339,0.189-1.914
				c0.107-0.575,0.281-1.106,0.521-1.598c0.233-0.491,0.572-0.956,1.014-1.396c0.625-0.625,1.332-1.104,2.119-1.434
				c0.785-0.329,1.658-0.492,2.623-0.492c0.963,0,1.822,0.146,2.574,0.442c0.752,0.296,1.401,0.697,1.949,1.202
				c0.551,0.509,0.994,1.101,1.333,1.775c0.336,0.677,0.574,1.404,0.708,2.181h-2.766c-0.232-0.998-0.676-1.771-1.314-2.319
				c-0.646-0.55-1.471-0.823-2.482-0.823c-0.541,0-1.039,0.103-1.496,0.306s-0.846,0.474-1.168,0.812
				c-0.219,0.236-0.402,0.494-0.543,0.772c-0.146,0.278-0.254,0.625-0.332,1.04c-0.072,0.415-0.129,0.92-0.164,1.521
				c-0.032,0.602-0.049,1.356-0.049,2.27s0.017,1.676,0.049,2.282c0.035,0.607,0.092,1.119,0.164,1.533
				c0.078,0.414,0.188,0.762,0.332,1.039c0.143,0.278,0.324,0.537,0.543,0.774c0.322,0.337,0.711,0.604,1.168,0.799
				c0.459,0.192,0.955,0.291,1.496,0.291c0.592,0,1.141-0.11,1.646-0.331c0.508-0.221,0.938-0.529,1.291-0.938
				c0.34-0.391,0.575-0.813,0.71-1.27c0.139-0.455,0.202-0.979,0.202-1.57V14.93h-3.854v-2.309h6.592v2.757
				C151.674,16.549,151.551,17.525,151.308,18.316z"/>
		</g>
	</g>
	<g>
		<g>
			<path fill="#50B748" d="M155.706,22.365V4.312h11.535v2.459h-8.795v5.271h7.506v2.437h-7.506v5.426h8.795v2.461H155.706
				L155.706,22.365z"/>
		</g>
	</g>
	<g>
		<path fill="#50B748" d="M176.954,4.919c0,0.522-0.102,1.023-0.305,1.505c-0.204,0.48-0.484,0.899-0.84,1.256
			c-0.355,0.355-0.775,0.635-1.256,0.837c-0.48,0.201-0.982,0.303-1.506,0.303c-0.521,0-1.021-0.102-1.5-0.303
			c-0.48-0.202-0.899-0.479-1.256-0.837c-0.355-0.355-0.639-0.774-0.84-1.256c-0.203-0.48-0.308-0.981-0.308-1.505
			c0-0.522,0.104-1.024,0.308-1.506c0.201-0.48,0.481-0.898,0.84-1.255c0.354-0.356,0.772-0.636,1.256-0.838
			c0.479-0.201,0.979-0.303,1.5-0.303c0.521,0,1.025,0.102,1.506,0.303c0.48,0.202,0.898,0.48,1.256,0.838
			c0.355,0.355,0.636,0.774,0.84,1.255C176.853,3.895,176.954,4.396,176.954,4.919z M176.028,4.922c0-0.567-0.13-1.083-0.393-1.546
			c-0.262-0.463-0.619-0.826-1.076-1.089c-0.456-0.264-0.959-0.395-1.512-0.395c-0.551,0-1.055,0.132-1.51,0.396
			c-0.457,0.266-0.813,0.627-1.074,1.089c-0.26,0.461-0.389,0.977-0.389,1.543c0,0.567,0.129,1.083,0.389,1.544
			c0.261,0.461,0.617,0.823,1.074,1.086c0.455,0.264,0.959,0.396,1.51,0.396c0.553,0,1.056-0.131,1.512-0.392
			c0.457-0.262,0.814-0.623,1.076-1.087C175.898,6.006,176.028,5.49,176.028,4.922z M174.807,6.988h-1.063l-0.75-1.605h-0.439v1.605
			h-0.928V2.84h1.688c0.271,0,0.514,0.061,0.725,0.18c0.209,0.119,0.373,0.277,0.486,0.477c0.116,0.197,0.176,0.414,0.176,0.646
			c0,0.271-0.072,0.5-0.222,0.688c-0.146,0.188-0.331,0.325-0.553,0.413L174.807,6.988z M173.765,4.14
			c0-0.096-0.024-0.185-0.071-0.27c-0.047-0.084-0.113-0.149-0.199-0.197c-0.086-0.047-0.185-0.07-0.295-0.07h-0.646v1.079h0.646
			c0.168,0,0.303-0.053,0.407-0.158S173.765,4.291,173.765,4.14z"/>
	</g>
</g>
</svg>
